<svg width="62" height="62" viewBox="0 0 62 62" fill="none" xmlns="http://www.w3.org/2000/svg">
<g filter="url(#filter0_di_544_940)">
<circle cx="31" cy="27" r="27" fill="#A15958"/>
</g>
<path fill-rule="evenodd" clip-rule="evenodd" d="M38.6305 25.566C39.1278 26.064 39.4072 26.739 39.4072 27.4428C39.4072 28.1465 39.1278 28.8215 38.6305 29.3195L28.6166 39.3369C28.1184 39.8349 27.4427 40.1146 26.7383 40.1144C26.0339 40.1142 25.3585 39.8342 24.8605 39.336C24.3625 38.8378 24.0828 38.1622 24.083 37.4578C24.0832 36.7534 24.3632 36.0779 24.8614 35.5799L32.9985 27.4428L24.8614 19.3056C24.3774 18.8049 24.1094 18.1342 24.1151 17.4379C24.1208 16.7415 24.3998 16.0753 24.8919 15.5827C25.3841 15.0901 26.0501 14.8104 26.7464 14.8041C27.4427 14.7977 28.1137 15.0651 28.6148 15.5486L38.6323 25.5643L38.6305 25.566Z" fill="white"/>
<defs>
<filter id="filter0_di_544_940" x="0" y="0" width="62" height="62" filterUnits="userSpaceOnUse" color-interpolation-filters="sRGB">
<feFlood flood-opacity="0" result="BackgroundImageFix"/>
<feColorMatrix in="SourceAlpha" type="matrix" values="0 0 0 0 0 0 0 0 0 0 0 0 0 0 0 0 0 0 127 0" result="hardAlpha"/>
<feOffset dy="4"/>
<feGaussianBlur stdDeviation="2"/>
<feComposite in2="hardAlpha" operator="out"/>
<feColorMatrix type="matrix" values="0 0 0 0 0 0 0 0 0 0 0 0 0 0 0 0 0 0 0.25 0"/>
<feBlend mode="normal" in2="BackgroundImageFix" result="effect1_dropShadow_544_940"/>
<feBlend mode="normal" in="SourceGraphic" in2="effect1_dropShadow_544_940" result="shape"/>
<feColorMatrix in="SourceAlpha" type="matrix" values="0 0 0 0 0 0 0 0 0 0 0 0 0 0 0 0 0 0 127 0" result="hardAlpha"/>
<feOffset dy="4"/>
<feGaussianBlur stdDeviation="2"/>
<feComposite in2="hardAlpha" operator="arithmetic" k2="-1" k3="1"/>
<feColorMatrix type="matrix" values="0 0 0 0 1 0 0 0 0 1 0 0 0 0 1 0 0 0 0.25 0"/>
<feBlend mode="normal" in2="shape" result="effect2_innerShadow_544_940"/>
</filter>
</defs>
</svg>
