<svg width="117" height="135" viewBox="0 0 117 135" fill="none" xmlns="http://www.w3.org/2000/svg">
<path d="M51.0303 23.5029C53.1102 15.9033 63.8898 15.9033 65.9697 23.5029C67.0119 27.3097 71.4941 28.9555 74.752 26.7275L75.2021 26.4199C81.6194 22.0307 89.7065 28.9705 86.3418 35.9795C84.6508 39.5024 87.0531 43.6546 90.9717 43.9844C98.6638 44.6311 100.74 55.1617 93.5918 58.3994C90.0285 60.0134 89.2079 64.7091 92.0127 67.4355C97.5772 72.8445 92.3411 82.1212 84.835 80.1523L84.3711 80.0303C80.5653 79.032 76.9227 82.1159 77.2793 86.0342C77.988 93.8229 67.9562 97.5573 63.3994 91.2012L63.1914 90.9111C60.8889 87.699 56.1111 87.699 53.8086 90.9111L53.6006 91.2012C49.0438 97.5573 39.012 93.8229 39.7207 86.0342C40.0773 82.1159 36.4347 79.032 32.6289 80.0303L32.165 80.1523C24.6589 82.1212 19.4228 72.8445 24.9873 67.4355C27.7921 64.7091 26.9715 60.0134 23.4082 58.3994C16.2601 55.1617 18.3362 44.6311 26.0283 43.9844C29.9469 43.6546 32.3492 39.5024 30.6582 35.9795C27.2935 28.9705 35.3806 22.0307 41.7979 26.4199L42.248 26.7275C45.5059 28.9555 49.9881 27.3097 51.0303 23.5029Z" fill="#D38C9D" stroke="white" stroke-width="2"/>
<path d="M38.9398 108.111H37.6103C37.5591 107.827 37.464 107.577 37.3248 107.361C37.1855 107.145 37.0151 106.962 36.8134 106.811C36.6117 106.661 36.3858 106.547 36.1358 106.47C35.8887 106.393 35.6259 106.355 35.3475 106.355C34.8446 106.355 34.3944 106.482 33.9966 106.734C33.6017 106.987 33.2892 107.358 33.0591 107.847C32.8319 108.335 32.7182 108.932 32.7182 109.636C32.7182 110.347 32.8319 110.946 33.0591 111.435C33.2892 111.923 33.6032 112.293 34.0009 112.543C34.3986 112.793 34.8461 112.918 35.3432 112.918C35.6188 112.918 35.8801 112.881 36.1273 112.807C36.3773 112.73 36.6032 112.618 36.8049 112.47C37.0066 112.322 37.177 112.142 37.3162 111.929C37.4583 111.713 37.5563 111.466 37.6103 111.188L38.9398 111.192C38.8688 111.621 38.731 112.016 38.5265 112.376C38.3248 112.734 38.0648 113.044 37.7466 113.305C37.4313 113.564 37.0705 113.764 36.6642 113.906C36.258 114.048 35.8148 114.119 35.3347 114.119C34.579 114.119 33.9057 113.94 33.3148 113.582C32.7239 113.222 32.258 112.706 31.9171 112.036C31.579 111.365 31.41 110.565 31.41 109.636C31.41 108.705 31.5804 107.905 31.9213 107.237C32.2623 106.567 32.7282 106.053 33.3191 105.695C33.91 105.334 34.5819 105.153 35.3347 105.153C35.7978 105.153 36.2296 105.22 36.6301 105.354C37.0336 105.484 37.3958 105.678 37.7168 105.933C38.0378 106.186 38.3034 106.496 38.5137 106.862C38.7239 107.226 38.8659 107.642 38.9398 108.111ZM43.1703 114.132C42.5566 114.132 42.0211 113.991 41.5637 113.71C41.1064 113.429 40.7512 113.036 40.4984 112.53C40.2456 112.024 40.1191 111.433 40.1191 110.757C40.1191 110.078 40.2456 109.484 40.4984 108.976C40.7512 108.467 41.1064 108.072 41.5637 107.791C42.0211 107.51 42.5566 107.369 43.1703 107.369C43.7839 107.369 44.3194 107.51 44.7768 107.791C45.2342 108.072 45.5893 108.467 45.8422 108.976C46.095 109.484 46.2214 110.078 46.2214 110.757C46.2214 111.433 46.095 112.024 45.8422 112.53C45.5893 113.036 45.2342 113.429 44.7768 113.71C44.3194 113.991 43.7839 114.132 43.1703 114.132ZM43.1745 113.062C43.5723 113.062 43.9018 112.957 44.1632 112.747C44.4245 112.537 44.6177 112.257 44.7427 111.908C44.8706 111.558 44.9345 111.173 44.9345 110.753C44.9345 110.335 44.8706 109.952 44.7427 109.602C44.6177 109.25 44.4245 108.967 44.1632 108.754C43.9018 108.541 43.5723 108.435 43.1745 108.435C42.774 108.435 42.4416 108.541 42.1774 108.754C41.916 108.967 41.7214 109.25 41.5936 109.602C41.4686 109.952 41.4061 110.335 41.4061 110.753C41.4061 111.173 41.4686 111.558 41.5936 111.908C41.7214 112.257 41.916 112.537 42.1774 112.747C42.4416 112.957 42.774 113.062 43.1745 113.062ZM47.6436 114V107.455H48.8667V108.52H48.9476C49.084 108.159 49.307 107.878 49.6167 107.676C49.9263 107.472 50.2971 107.369 50.7289 107.369C51.1664 107.369 51.5328 107.472 51.8283 107.676C52.1266 107.881 52.3468 108.162 52.4888 108.52H52.557C52.7132 108.17 52.9618 107.892 53.3027 107.685C53.6436 107.474 54.0499 107.369 54.5215 107.369C55.1152 107.369 55.5996 107.555 55.9746 107.928C56.3525 108.3 56.5414 108.861 56.5414 109.611V114H55.2672V109.73C55.2672 109.287 55.1465 108.966 54.905 108.767C54.6635 108.568 54.3752 108.469 54.04 108.469C53.6252 108.469 53.3027 108.597 53.0726 108.852C52.8425 109.105 52.7275 109.43 52.7275 109.828V114H51.4576V109.649C51.4576 109.294 51.3468 109.009 51.1252 108.793C50.9036 108.577 50.6152 108.469 50.2601 108.469C50.0186 108.469 49.7956 108.533 49.5911 108.661C49.3894 108.786 49.226 108.96 49.101 109.185C48.9789 109.409 48.9178 109.669 48.9178 109.964V114H47.6436ZM58.2491 116.455V107.455H59.4934V108.516H59.6C59.6738 108.379 59.7804 108.222 59.9196 108.043C60.0588 107.864 60.252 107.707 60.4991 107.574C60.7463 107.438 61.073 107.369 61.4792 107.369C62.0076 107.369 62.4792 107.503 62.894 107.77C63.3088 108.037 63.6341 108.422 63.8699 108.925C64.1085 109.428 64.2278 110.033 64.2278 110.74C64.2278 111.447 64.1099 112.054 63.8741 112.56C63.6383 113.062 63.3145 113.45 62.9025 113.723C62.4906 113.993 62.0204 114.128 61.492 114.128C61.0943 114.128 60.769 114.061 60.5162 113.928C60.2662 113.794 60.0701 113.638 59.9281 113.459C59.786 113.28 59.6767 113.121 59.6 112.982H59.5233V116.455H58.2491ZM59.4977 110.727C59.4977 111.187 59.5645 111.591 59.698 111.938C59.8315 112.284 60.0247 112.555 60.2775 112.751C60.5304 112.945 60.84 113.041 61.2065 113.041C61.5872 113.041 61.9054 112.94 62.161 112.739C62.4167 112.534 62.6099 112.257 62.7406 111.908C62.8741 111.558 62.9409 111.165 62.9409 110.727C62.9409 110.295 62.8755 109.908 62.7449 109.564C62.617 109.22 62.4238 108.949 62.1653 108.75C61.9096 108.551 61.59 108.452 61.2065 108.452C60.8372 108.452 60.5247 108.547 60.269 108.737C60.0162 108.928 59.8244 109.193 59.6937 109.534C59.563 109.875 59.4977 110.273 59.4977 110.727ZM66.9295 105.273V114H65.6554V105.273H66.9295ZM71.4647 114.132C70.8198 114.132 70.2644 113.994 69.7985 113.719C69.3354 113.44 68.9775 113.05 68.7246 112.547C68.4746 112.041 68.3496 111.449 68.3496 110.77C68.3496 110.099 68.4746 109.509 68.7246 108.997C68.9775 108.486 69.3297 108.087 69.7814 107.8C70.236 107.513 70.7672 107.369 71.3752 107.369C71.7445 107.369 72.1025 107.43 72.449 107.553C72.7956 107.675 73.1067 107.866 73.3823 108.128C73.6578 108.389 73.8752 108.729 74.0343 109.146C74.1934 109.561 74.2729 110.065 74.2729 110.659V111.111H69.0698V110.156H73.0243C73.0243 109.821 72.9561 109.524 72.8198 109.266C72.6834 109.004 72.4917 108.798 72.2445 108.648C72.0002 108.497 71.7132 108.422 71.3837 108.422C71.0257 108.422 70.7132 108.51 70.4462 108.686C70.182 108.859 69.9775 109.087 69.8326 109.368C69.6905 109.646 69.6195 109.949 69.6195 110.276V111.021C69.6195 111.459 69.6962 111.831 69.8496 112.138C70.0059 112.445 70.2232 112.679 70.5016 112.841C70.78 113 71.1053 113.08 71.4775 113.08C71.7189 113.08 71.9391 113.045 72.138 112.977C72.3368 112.906 72.5087 112.801 72.6536 112.662C72.7985 112.523 72.9093 112.351 72.986 112.146L74.1919 112.364C74.0953 112.719 73.9221 113.03 73.6721 113.297C73.4249 113.561 73.1138 113.767 72.7388 113.915C72.3667 114.06 71.9419 114.132 71.4647 114.132ZM78.742 107.455V108.477H75.1667V107.455H78.742ZM76.1255 105.886H77.3997V112.078C77.3997 112.325 77.4366 112.511 77.5105 112.636C77.5843 112.759 77.6795 112.842 77.796 112.888C77.9153 112.93 78.0446 112.952 78.1838 112.952C78.286 112.952 78.3755 112.945 78.4522 112.93C78.5289 112.916 78.5886 112.905 78.6312 112.896L78.8613 113.949C78.7875 113.977 78.6824 114.006 78.546 114.034C78.4096 114.065 78.2392 114.082 78.0346 114.085C77.6994 114.091 77.3869 114.031 77.0971 113.906C76.8074 113.781 76.573 113.588 76.394 113.327C76.215 113.065 76.1255 112.737 76.1255 112.342V105.886ZM82.9022 114.132C82.2573 114.132 81.7019 113.994 81.236 113.719C80.7729 113.44 80.415 113.05 80.1621 112.547C79.9121 112.041 79.7871 111.449 79.7871 110.77C79.7871 110.099 79.9121 109.509 80.1621 108.997C80.415 108.486 80.7672 108.087 81.2189 107.8C81.6735 107.513 82.2047 107.369 82.8127 107.369C83.182 107.369 83.54 107.43 83.8865 107.553C84.2331 107.675 84.5442 107.866 84.8198 108.128C85.0953 108.389 85.3127 108.729 85.4718 109.146C85.6309 109.561 85.7104 110.065 85.7104 110.659V111.111H80.5073V110.156H84.4618C84.4618 109.821 84.3936 109.524 84.2573 109.266C84.1209 109.004 83.9292 108.798 83.682 108.648C83.4377 108.497 83.1507 108.422 82.8212 108.422C82.4632 108.422 82.1507 108.51 81.8837 108.686C81.6195 108.859 81.415 109.087 81.2701 109.368C81.128 109.646 81.057 109.949 81.057 110.276V111.021C81.057 111.459 81.1337 111.831 81.2871 112.138C81.4434 112.445 81.6607 112.679 81.9391 112.841C82.2175 113 82.5428 113.08 82.915 113.08C83.1564 113.08 83.3766 113.045 83.5755 112.977C83.7743 112.906 83.9462 112.801 84.0911 112.662C84.236 112.523 84.3468 112.351 84.4235 112.146L85.6294 112.364C85.5328 112.719 85.3596 113.03 85.1096 113.297C84.8624 113.561 84.5513 113.767 84.1763 113.915C83.8042 114.06 83.3794 114.132 82.9022 114.132ZM32.4157 129V128.045L35.3688 124.986C35.6841 124.653 35.9441 124.362 36.1486 124.112C36.356 123.859 36.5108 123.619 36.6131 123.392C36.7154 123.165 36.7665 122.923 36.7665 122.668C36.7665 122.378 36.6983 122.128 36.562 121.918C36.4256 121.705 36.2395 121.541 36.0037 121.428C35.7679 121.311 35.5023 121.253 35.2069 121.253C34.8944 121.253 34.6216 121.317 34.3887 121.445C34.1557 121.572 33.9767 121.753 33.8517 121.986C33.7267 122.219 33.6642 122.491 33.6642 122.804H32.4071C32.4071 122.273 32.5293 121.808 32.7736 121.411C33.0179 121.013 33.3532 120.705 33.7793 120.486C34.2054 120.264 34.6898 120.153 35.2324 120.153C35.7807 120.153 36.2637 120.263 36.6813 120.482C37.1017 120.697 37.4299 120.993 37.6657 121.368C37.9015 121.74 38.0194 122.161 38.0194 122.629C38.0194 122.953 37.9583 123.27 37.8361 123.58C37.7168 123.889 37.508 124.234 37.2097 124.615C36.9114 124.993 36.4966 125.452 35.9654 125.991L34.231 127.807V127.871H38.16V129H32.4157ZM42.8134 129.145C42.1401 129.142 41.5648 128.964 41.0875 128.612C40.6103 128.26 40.2452 127.747 39.9924 127.074C39.7395 126.401 39.6131 125.589 39.6131 124.641C39.6131 123.695 39.7395 122.886 39.9924 122.216C40.248 121.545 40.6145 121.034 41.0918 120.682C41.5719 120.33 42.1458 120.153 42.8134 120.153C43.481 120.153 44.0534 120.331 44.5307 120.686C45.008 121.038 45.373 121.55 45.6259 122.22C45.8816 122.888 46.0094 123.695 46.0094 124.641C46.0094 125.592 45.883 126.405 45.6301 127.078C45.3773 127.749 45.0123 128.261 44.535 128.616C44.0577 128.969 43.4838 129.145 42.8134 129.145ZM42.8134 128.007C43.4043 128.007 43.8659 127.719 44.1983 127.142C44.5336 126.565 44.7012 125.732 44.7012 124.641C44.7012 123.916 44.6245 123.304 44.4711 122.804C44.3205 122.301 44.1032 121.92 43.8191 121.662C43.5378 121.401 43.2026 121.27 42.8134 121.27C42.2253 121.27 41.7637 121.56 41.4284 122.139C41.0932 122.719 40.9242 123.553 40.9213 124.641C40.9213 125.368 40.9966 125.983 41.1472 126.486C41.3006 126.986 41.5179 127.365 41.7992 127.624C42.0804 127.879 42.4185 128.007 42.8134 128.007ZM58.0648 123.111H56.7353C56.6841 122.827 56.589 122.577 56.4498 122.361C56.3105 122.145 56.1401 121.962 55.9384 121.811C55.7367 121.661 55.5108 121.547 55.2608 121.47C55.0137 121.393 54.7509 121.355 54.4725 121.355C53.9696 121.355 53.5194 121.482 53.1216 121.734C52.7267 121.987 52.4142 122.358 52.1841 122.847C51.9569 123.335 51.8432 123.932 51.8432 124.636C51.8432 125.347 51.9569 125.946 52.1841 126.435C52.4142 126.923 52.7282 127.293 53.1259 127.543C53.5236 127.793 53.9711 127.918 54.4682 127.918C54.7438 127.918 55.0051 127.881 55.2523 127.807C55.5023 127.73 55.7282 127.618 55.9299 127.47C56.1316 127.322 56.302 127.142 56.4412 126.929C56.5833 126.713 56.6813 126.466 56.7353 126.188L58.0648 126.192C57.9938 126.621 57.856 127.016 57.6515 127.376C57.4498 127.734 57.1898 128.044 56.8716 128.305C56.5563 128.564 56.1955 128.764 55.7892 128.906C55.383 129.048 54.9398 129.119 54.4597 129.119C53.704 129.119 53.0307 128.94 52.4398 128.582C51.8489 128.222 51.383 127.706 51.0421 127.036C50.704 126.365 50.535 125.565 50.535 124.636C50.535 123.705 50.7054 122.905 51.0463 122.237C51.3873 121.567 51.8532 121.053 52.4441 120.695C53.035 120.334 53.7069 120.153 54.4597 120.153C54.9228 120.153 55.3546 120.22 55.7551 120.354C56.1586 120.484 56.5208 120.678 56.8418 120.933C57.1628 121.186 57.4284 121.496 57.6387 121.862C57.8489 122.226 57.9909 122.642 58.0648 123.111ZM61.443 129.145C61.0282 129.145 60.6532 129.068 60.318 128.915C59.9828 128.759 59.7172 128.533 59.5211 128.237C59.3279 127.942 59.2314 127.58 59.2314 127.151C59.2314 126.781 59.3024 126.477 59.4444 126.239C59.5865 126 59.7782 125.811 60.0197 125.672C60.2612 125.533 60.5311 125.428 60.8294 125.357C61.1277 125.286 61.4316 125.232 61.7413 125.195C62.1333 125.149 62.4515 125.112 62.6958 125.084C62.9402 125.053 63.1177 125.003 63.2285 124.935C63.3393 124.866 63.3947 124.756 63.3947 124.602V124.572C63.3947 124.2 63.2896 123.912 63.0794 123.707C62.872 123.503 62.5623 123.401 62.1504 123.401C61.7214 123.401 61.3833 123.496 61.1362 123.686C60.8919 123.874 60.7228 124.082 60.6291 124.312L59.4316 124.04C59.5737 123.642 59.7811 123.321 60.0538 123.077C60.3294 122.83 60.6461 122.651 61.0041 122.54C61.362 122.426 61.7385 122.369 62.1333 122.369C62.3947 122.369 62.6717 122.401 62.9643 122.463C63.2598 122.523 63.5353 122.634 63.791 122.795C64.0495 122.957 64.2612 123.189 64.426 123.49C64.5907 123.788 64.6731 124.176 64.6731 124.653V129H63.4288V128.105H63.3777C63.2953 128.27 63.1717 128.432 63.0069 128.591C62.8422 128.75 62.6305 128.882 62.372 128.987C62.1135 129.092 61.8038 129.145 61.443 129.145ZM61.72 128.122C62.0723 128.122 62.3734 128.053 62.6234 127.913C62.8762 127.774 63.068 127.592 63.1987 127.368C63.3322 127.141 63.399 126.898 63.399 126.639V125.795C63.3535 125.841 63.2654 125.884 63.1348 125.923C63.0069 125.96 62.8606 125.993 62.6958 126.021C62.5311 126.047 62.3706 126.071 62.2143 126.094C62.0581 126.114 61.9274 126.131 61.8223 126.145C61.5751 126.176 61.3493 126.229 61.1447 126.303C60.943 126.376 60.7811 126.483 60.6589 126.622C60.5396 126.759 60.4799 126.94 60.4799 127.168C60.4799 127.483 60.5964 127.722 60.8294 127.884C61.0623 128.043 61.3592 128.122 61.72 128.122ZM71.275 124.053L70.1202 124.257C70.0719 124.109 69.9952 123.969 69.8901 123.835C69.7878 123.702 69.6486 123.592 69.4725 123.507C69.2963 123.422 69.0762 123.379 68.812 123.379C68.4512 123.379 68.15 123.46 67.9086 123.622C67.6671 123.781 67.5463 123.987 67.5463 124.24C67.5463 124.459 67.6273 124.635 67.7892 124.768C67.9512 124.902 68.2125 125.011 68.5733 125.097L69.6131 125.335C70.2154 125.474 70.6642 125.689 70.9597 125.979C71.2551 126.268 71.4029 126.645 71.4029 127.108C71.4029 127.5 71.2892 127.849 71.062 128.156C70.8375 128.46 70.5236 128.699 70.1202 128.872C69.7196 129.045 69.2551 129.132 68.7267 129.132C67.9938 129.132 67.3958 128.976 66.9327 128.663C66.4696 128.348 66.1855 127.901 66.0804 127.321L67.312 127.134C67.3887 127.455 67.5463 127.697 67.785 127.862C68.0236 128.024 68.3347 128.105 68.7182 128.105C69.1358 128.105 69.4696 128.018 69.7196 127.845C69.9696 127.669 70.0946 127.455 70.0946 127.202C70.0946 126.997 70.0179 126.825 69.8645 126.686C69.714 126.547 69.4824 126.442 69.1699 126.371L68.062 126.128C67.4512 125.989 66.9995 125.767 66.7069 125.463C66.4171 125.159 66.2722 124.774 66.2722 124.308C66.2722 123.922 66.3801 123.584 66.5961 123.294C66.812 123.004 67.1103 122.778 67.4909 122.616C67.8716 122.452 68.3077 122.369 68.7992 122.369C69.5066 122.369 70.0634 122.523 70.4696 122.83C70.8759 123.134 71.1444 123.541 71.275 124.053ZM75.6248 129.132C74.9799 129.132 74.4245 128.994 73.9586 128.719C73.4956 128.44 73.1376 128.05 72.8848 127.547C72.6348 127.041 72.5098 126.449 72.5098 125.77C72.5098 125.099 72.6348 124.509 72.8848 123.997C73.1376 123.486 73.4899 123.087 73.9416 122.8C74.3961 122.513 74.9274 122.369 75.5353 122.369C75.9047 122.369 76.2626 122.43 76.6092 122.553C76.9558 122.675 77.2669 122.866 77.5424 123.128C77.818 123.389 78.0353 123.729 78.1944 124.146C78.3535 124.561 78.4331 125.065 78.4331 125.659V126.111H73.2299V125.156H77.1845C77.1845 124.821 77.1163 124.524 76.9799 124.266C76.8436 124.004 76.6518 123.798 76.4047 123.648C76.1603 123.497 75.8734 123.422 75.5439 123.422C75.1859 123.422 74.8734 123.51 74.6064 123.686C74.3422 123.859 74.1376 124.087 73.9927 124.368C73.8507 124.646 73.7797 124.949 73.7797 125.276V126.021C73.7797 126.459 73.8564 126.831 74.0098 127.138C74.166 127.445 74.3833 127.679 74.6618 127.841C74.9402 128 75.2654 128.08 75.6376 128.08C75.8791 128.08 76.0993 128.045 76.2981 127.977C76.497 127.906 76.6689 127.801 76.8137 127.662C76.9586 127.523 77.0694 127.351 77.1461 127.146L78.3521 127.364C78.2555 127.719 78.0822 128.03 77.8322 128.297C77.585 128.561 77.274 128.767 76.899 128.915C76.5268 129.06 76.1021 129.132 75.6248 129.132ZM84.7516 124.053L83.5968 124.257C83.5485 124.109 83.4718 123.969 83.3667 123.835C83.2644 123.702 83.1252 123.592 82.949 123.507C82.7729 123.422 82.5527 123.379 82.2885 123.379C81.9277 123.379 81.6266 123.46 81.3851 123.622C81.1436 123.781 81.0229 123.987 81.0229 124.24C81.0229 124.459 81.1039 124.635 81.2658 124.768C81.4277 124.902 81.6891 125.011 82.0499 125.097L83.0897 125.335C83.6919 125.474 84.1408 125.689 84.4363 125.979C84.7317 126.268 84.8794 126.645 84.8794 127.108C84.8794 127.5 84.7658 127.849 84.5385 128.156C84.3141 128.46 84.0002 128.699 83.5968 128.872C83.1962 129.045 82.7317 129.132 82.2033 129.132C81.4703 129.132 80.8723 128.976 80.4093 128.663C79.9462 128.348 79.6621 127.901 79.557 127.321L80.7885 127.134C80.8652 127.455 81.0229 127.697 81.2615 127.862C81.5002 128.024 81.8113 128.105 82.1948 128.105C82.6124 128.105 82.9462 128.018 83.1962 127.845C83.4462 127.669 83.5712 127.455 83.5712 127.202C83.5712 126.997 83.4945 126.825 83.3411 126.686C83.1905 126.547 82.959 126.442 82.6465 126.371L81.5385 126.128C80.9277 125.989 80.476 125.767 80.1834 125.463C79.8936 125.159 79.7488 124.774 79.7488 124.308C79.7488 123.922 79.8567 123.584 80.0726 123.294C80.2885 123.004 80.5868 122.778 80.9675 122.616C81.3482 122.452 81.7843 122.369 82.2757 122.369C82.9831 122.369 83.54 122.523 83.9462 122.83C84.3525 123.134 84.6209 123.541 84.7516 124.053Z" fill="white"/>
<path d="M49 54.6V47H45V49C45 50.2667 45.3667 51.4087 46.1 52.426C46.8333 53.4433 47.8 54.168 49 54.6ZM69 54.6C70.2 54.1667 71.1667 53.4413 71.9 52.424C72.6333 51.4067 73 50.2653 73 49V47H69V54.6ZM57 71V64.8C55.3667 64.4333 53.9087 63.742 52.626 62.726C51.3433 61.71 50.4013 60.4347 49.8 58.9C47.3 58.6 45.2087 57.5087 43.526 55.626C41.8433 53.7433 41.0013 51.5347 41 49V47C41 45.9 41.392 44.9587 42.176 44.176C42.96 43.3933 43.9013 43.0013 45 43H49C49 41.9 49.392 40.9587 50.176 40.176C50.96 39.3933 51.9013 39.0013 53 39H65C66.1 39 67.042 39.392 67.826 40.176C68.61 40.96 69.0013 41.9013 69 43H73C74.1 43 75.042 43.392 75.826 44.176C76.61 44.96 77.0013 45.9013 77 47V49C77 51.5333 76.158 53.742 74.474 55.626C72.79 57.51 70.6987 58.6013 68.2 58.9C67.6 60.4333 66.6587 61.7087 65.376 62.726C64.0933 63.7433 62.6347 64.4347 61 64.8V71H67C67.5667 71 68.042 71.192 68.426 71.576C68.81 71.96 69.0013 72.4347 69 73C68.9987 73.5653 68.8067 74.0407 68.424 74.426C68.0413 74.8113 67.5667 75.0027 67 75H51C50.4333 75 49.9587 74.808 49.576 74.424C49.1933 74.04 49.0013 73.5653 49 73C48.9987 72.4347 49.1907 71.96 49.576 71.576C49.9613 71.192 50.436 71 51 71H57Z" fill="white"/>
</svg>
