<svg width="33" height="38" viewBox="0 0 33 38" fill="none" xmlns="http://www.w3.org/2000/svg">
<path d="M16.4541 0L17.2366 14.295C17.3155 15.7367 18.8494 16.6223 20.1375 15.9698L32.9086 9.5L20.92 17.3252C19.7109 18.1144 19.7109 19.8856 20.92 20.6748L32.9086 28.5L20.1375 22.0302C18.8494 21.3777 17.3155 22.2633 17.2366 23.705L16.4541 38L15.6716 23.705C15.5927 22.2633 14.0588 21.3777 12.7707 22.0302L-0.00038147 28.5L11.9882 20.6748C13.1973 19.8856 13.1973 18.1144 11.9882 17.3252L-0.00038147 9.5L12.7707 15.9698C14.0588 16.6223 15.5927 15.7367 15.6716 14.295L16.4541 0Z" fill="#A15958"/>
</svg>
