<svg width="117" height="135" viewBox="0 0 117 135" fill="none" xmlns="http://www.w3.org/2000/svg">
<path d="M51.0303 23.5029C53.1102 15.9033 63.8898 15.9033 65.9697 23.5029C67.0119 27.3097 71.4941 28.9555 74.752 26.7275L75.2021 26.4199C81.6194 22.0307 89.7065 28.9705 86.3418 35.9795C84.6508 39.5024 87.0531 43.6546 90.9717 43.9844C98.6638 44.6311 100.74 55.1617 93.5918 58.3994C90.0285 60.0134 89.2079 64.7091 92.0127 67.4355C97.5772 72.8445 92.3411 82.1212 84.835 80.1523L84.3711 80.0303C80.5653 79.032 76.9227 82.1159 77.2793 86.0342C77.988 93.8229 67.9562 97.5573 63.3994 91.2012L63.1914 90.9111C60.8889 87.699 56.1111 87.699 53.8086 90.9111L53.6006 91.2012C49.0438 97.5573 39.012 93.8229 39.7207 86.0342C40.0773 82.1159 36.4347 79.032 32.6289 80.0303L32.165 80.1523C24.6589 82.1212 19.4228 72.8445 24.9873 67.4355C27.7921 64.7091 26.9715 60.0134 23.4082 58.3994C16.2601 55.1617 18.3362 44.6311 26.0283 43.9844C29.9469 43.6546 32.3492 39.5024 30.6582 35.9795C27.2935 28.9705 35.3806 22.0307 41.7979 26.4199L42.248 26.7275C45.5059 28.9555 49.9881 27.3097 51.0303 23.5029Z" fill="#A15958" stroke="white" stroke-width="2"/>
<path d="M40.6214 108.111H39.2919C39.2408 107.827 39.1456 107.577 39.0064 107.361C38.8672 107.145 38.6967 106.962 38.495 106.811C38.2933 106.661 38.0675 106.547 37.8175 106.47C37.5703 106.393 37.3075 106.355 37.0291 106.355C36.5263 106.355 36.076 106.482 35.6783 106.734C35.2834 106.987 34.9709 107.358 34.7408 107.847C34.5135 108.335 34.3999 108.932 34.3999 109.636C34.3999 110.347 34.5135 110.946 34.7408 111.435C34.9709 111.923 35.2848 112.293 35.6825 112.543C36.0803 112.793 36.5277 112.918 37.0249 112.918C37.3004 112.918 37.5618 112.881 37.8089 112.807C38.0589 112.73 38.2848 112.618 38.4865 112.47C38.6882 112.322 38.8587 112.142 38.9979 111.929C39.1399 111.713 39.2379 111.466 39.2919 111.188L40.6214 111.192C40.5504 111.621 40.4126 112.016 40.2081 112.376C40.0064 112.734 39.7464 113.044 39.4283 113.305C39.1129 113.564 38.7521 113.764 38.3459 113.906C37.9396 114.048 37.4964 114.119 37.0163 114.119C36.2607 114.119 35.5874 113.94 34.9964 113.582C34.4055 113.222 33.9396 112.706 33.5987 112.036C33.2607 111.365 33.0916 110.565 33.0916 109.636C33.0916 108.705 33.2621 107.905 33.603 107.237C33.9439 106.567 34.4098 106.053 35.0007 105.695C35.5916 105.334 36.2635 105.153 37.0163 105.153C37.4794 105.153 37.9112 105.22 38.3118 105.354C38.7152 105.484 39.0774 105.678 39.3984 105.933C39.7195 106.186 39.9851 106.496 40.1953 106.862C40.4055 107.226 40.5476 107.642 40.6214 108.111ZM43.369 110.114V114H42.0948V105.273H43.3519V108.52H43.4329C43.5863 108.168 43.8207 107.888 44.136 107.68C44.4513 107.473 44.8633 107.369 45.3718 107.369C45.8207 107.369 46.2127 107.462 46.5479 107.646C46.886 107.831 47.1474 108.107 47.332 108.473C47.5195 108.837 47.6133 109.291 47.6133 109.837V114H46.3391V109.99C46.3391 109.51 46.2156 109.138 45.9684 108.874C45.7212 108.607 45.3775 108.473 44.9371 108.473C44.636 108.473 44.3661 108.537 44.1275 108.665C43.8917 108.793 43.7056 108.98 43.5692 109.227C43.4357 109.472 43.369 109.767 43.369 110.114ZM51.2184 114.145C50.8036 114.145 50.4286 114.068 50.0934 113.915C49.7582 113.759 49.4925 113.533 49.2965 113.237C49.1033 112.942 49.0067 112.58 49.0067 112.151C49.0067 111.781 49.0778 111.477 49.2198 111.239C49.3619 111 49.5536 110.811 49.7951 110.672C50.0366 110.533 50.3065 110.428 50.6048 110.357C50.9031 110.286 51.207 110.232 51.5167 110.195C51.9087 110.149 52.2269 110.112 52.4712 110.084C52.7156 110.053 52.8931 110.003 53.0039 109.935C53.1147 109.866 53.1701 109.756 53.1701 109.602V109.572C53.1701 109.2 53.065 108.912 52.8548 108.707C52.6474 108.503 52.3377 108.401 51.9258 108.401C51.4968 108.401 51.1587 108.496 50.9116 108.686C50.6673 108.874 50.4982 109.082 50.4045 109.312L49.207 109.04C49.3491 108.642 49.5565 108.321 49.8292 108.077C50.1048 107.83 50.4215 107.651 50.7795 107.54C51.1374 107.426 51.5138 107.369 51.9087 107.369C52.1701 107.369 52.4471 107.401 52.7397 107.463C53.0352 107.523 53.3107 107.634 53.5664 107.795C53.8249 107.957 54.0366 108.189 54.2013 108.49C54.3661 108.788 54.4485 109.176 54.4485 109.653V114H53.2042V113.105H53.1531C53.0707 113.27 52.9471 113.432 52.7823 113.591C52.6175 113.75 52.4059 113.882 52.1474 113.987C51.8888 114.092 51.5792 114.145 51.2184 114.145ZM51.4954 113.122C51.8477 113.122 52.1488 113.053 52.3988 112.913C52.6516 112.774 52.8434 112.592 52.9741 112.368C53.1076 112.141 53.1744 111.898 53.1744 111.639V110.795C53.1289 110.841 53.0408 110.884 52.9102 110.923C52.7823 110.96 52.636 110.993 52.4712 111.021C52.3065 111.047 52.146 111.071 51.9897 111.094C51.8335 111.114 51.7028 111.131 51.5977 111.145C51.3505 111.176 51.1246 111.229 50.9201 111.303C50.7184 111.376 50.5565 111.483 50.4343 111.622C50.315 111.759 50.2553 111.94 50.2553 112.168C50.2553 112.483 50.3718 112.722 50.6048 112.884C50.8377 113.043 51.1346 113.122 51.4954 113.122ZM56.1456 116.455V107.455H57.3899V108.516H57.4964C57.5703 108.379 57.6768 108.222 57.8161 108.043C57.9553 107.864 58.1484 107.707 58.3956 107.574C58.6428 107.438 58.9695 107.369 59.3757 107.369C59.9041 107.369 60.3757 107.503 60.7905 107.77C61.2053 108.037 61.5305 108.422 61.7663 108.925C62.005 109.428 62.1243 110.033 62.1243 110.74C62.1243 111.447 62.0064 112.054 61.7706 112.56C61.5348 113.062 61.2109 113.45 60.799 113.723C60.3871 113.993 59.9169 114.128 59.3885 114.128C58.9908 114.128 58.6655 114.061 58.4126 113.928C58.1626 113.794 57.9666 113.638 57.8246 113.459C57.6825 113.28 57.5732 113.121 57.4964 112.982H57.4197V116.455H56.1456ZM57.3942 110.727C57.3942 111.187 57.4609 111.591 57.5945 111.938C57.728 112.284 57.9212 112.555 58.174 112.751C58.4268 112.945 58.7365 113.041 59.103 113.041C59.4837 113.041 59.8018 112.94 60.0575 112.739C60.3132 112.534 60.5064 112.257 60.6371 111.908C60.7706 111.558 60.8374 111.165 60.8374 110.727C60.8374 110.295 60.772 109.908 60.6413 109.564C60.5135 109.22 60.3203 108.949 60.0618 108.75C59.8061 108.551 59.4865 108.452 59.103 108.452C58.7337 108.452 58.4212 108.547 58.1655 108.737C57.9126 108.928 57.7209 109.193 57.5902 109.534C57.4595 109.875 57.3942 110.273 57.3942 110.727ZM66.6072 107.455V108.477H63.032V107.455H66.6072ZM63.9908 105.886H65.2649V112.078C65.2649 112.325 65.3018 112.511 65.3757 112.636C65.4496 112.759 65.5447 112.842 65.6612 112.888C65.7805 112.93 65.9098 112.952 66.049 112.952C66.1513 112.952 66.2408 112.945 66.3175 112.93C66.3942 112.916 66.4538 112.905 66.4964 112.896L66.7266 113.949C66.6527 113.977 66.5476 114.006 66.4112 114.034C66.2749 114.065 66.1044 114.082 65.8999 114.085C65.5646 114.091 65.2521 114.031 64.9624 113.906C64.6726 113.781 64.4382 113.588 64.2592 113.327C64.0803 113.065 63.9908 112.737 63.9908 112.342V105.886ZM70.7674 114.132C70.1225 114.132 69.5671 113.994 69.1012 113.719C68.6381 113.44 68.2802 113.05 68.0273 112.547C67.7773 112.041 67.6523 111.449 67.6523 110.77C67.6523 110.099 67.7773 109.509 68.0273 108.997C68.2802 108.486 68.6325 108.087 69.0842 107.8C69.5387 107.513 70.07 107.369 70.6779 107.369C71.0472 107.369 71.4052 107.43 71.7518 107.553C72.0984 107.675 72.4094 107.866 72.685 108.128C72.9606 108.389 73.1779 108.729 73.337 109.146C73.4961 109.561 73.5756 110.065 73.5756 110.659V111.111H68.3725V110.156H72.3271C72.3271 109.821 72.2589 109.524 72.1225 109.266C71.9862 109.004 71.7944 108.798 71.5472 108.648C71.3029 108.497 71.016 108.422 70.6864 108.422C70.3285 108.422 70.016 108.51 69.7489 108.686C69.4847 108.859 69.2802 109.087 69.1353 109.368C68.9933 109.646 68.9222 109.949 68.9222 110.276V111.021C68.9222 111.459 68.9989 111.831 69.1523 112.138C69.3086 112.445 69.5259 112.679 69.8043 112.841C70.0827 113 70.408 113.08 70.7802 113.08C71.0217 113.08 71.2418 113.045 71.4407 112.977C71.6396 112.906 71.8114 112.801 71.9563 112.662C72.1012 112.523 72.212 112.351 72.2887 112.146L73.4947 112.364C73.3981 112.719 73.2248 113.03 72.9748 113.297C72.7276 113.561 72.4165 113.767 72.0415 113.915C71.6694 114.06 71.2447 114.132 70.7674 114.132ZM74.9893 114V107.455H76.2209V108.494H76.2891C76.4084 108.142 76.6186 107.865 76.9197 107.663C77.2237 107.459 77.5675 107.357 77.951 107.357C78.0305 107.357 78.1243 107.359 78.2322 107.365C78.343 107.371 78.4297 107.378 78.4922 107.386V108.605C78.4411 108.591 78.3501 108.575 78.2195 108.558C78.0888 108.538 77.9581 108.528 77.8274 108.528C77.5263 108.528 77.2578 108.592 77.022 108.72C76.7891 108.845 76.6044 109.02 76.468 109.244C76.3317 109.466 76.2635 109.719 76.2635 110.003V114H74.9893ZM86.0646 105.273V114H84.7436V106.594H84.6925L82.6044 107.957V106.696L84.782 105.273H86.0646ZM33.098 129.132C32.4645 129.132 31.919 128.989 31.4616 128.702C31.0071 128.412 30.6577 128.013 30.4134 127.504C30.169 126.996 30.0469 126.413 30.0469 125.757C30.0469 125.092 30.1719 124.506 30.4219 123.997C30.6719 123.486 31.0241 123.087 31.4787 122.8C31.9332 122.513 32.4688 122.369 33.0852 122.369C33.5824 122.369 34.0256 122.462 34.4148 122.646C34.804 122.828 35.1179 123.084 35.3565 123.413C35.598 123.743 35.7415 124.128 35.7869 124.568H34.5469C34.4787 124.261 34.3224 123.997 34.0781 123.776C33.8366 123.554 33.5128 123.443 33.1065 123.443C32.7514 123.443 32.4403 123.537 32.1733 123.724C31.9091 123.909 31.7031 124.173 31.5554 124.517C31.4077 124.858 31.3338 125.261 31.3338 125.727C31.3338 126.205 31.4063 126.616 31.5511 126.963C31.696 127.31 31.9006 127.578 32.1648 127.768C32.4318 127.959 32.7457 128.054 33.1065 128.054C33.348 128.054 33.5668 128.01 33.7628 127.922C33.9616 127.831 34.1278 127.702 34.2614 127.534C34.3977 127.366 34.4929 127.165 34.5469 126.929H35.7869C35.7415 127.352 35.6037 127.73 35.3736 128.062C35.1435 128.395 34.8352 128.656 34.4489 128.847C34.0653 129.037 33.6151 129.132 33.098 129.132ZM39.9066 129.132C39.293 129.132 38.7575 128.991 38.3001 128.71C37.8427 128.429 37.4876 128.036 37.2347 127.53C36.9819 127.024 36.8555 126.433 36.8555 125.757C36.8555 125.078 36.9819 124.484 37.2347 123.976C37.4876 123.467 37.8427 123.072 38.3001 122.791C38.7575 122.51 39.293 122.369 39.9066 122.369C40.5202 122.369 41.0558 122.51 41.5131 122.791C41.9705 123.072 42.3256 123.467 42.5785 123.976C42.8313 124.484 42.9577 125.078 42.9577 125.757C42.9577 126.433 42.8313 127.024 42.5785 127.53C42.3256 128.036 41.9705 128.429 41.5131 128.71C41.0558 128.991 40.5202 129.132 39.9066 129.132ZM39.9109 128.062C40.3086 128.062 40.6381 127.957 40.8995 127.747C41.1609 127.537 41.354 127.257 41.479 126.908C41.6069 126.558 41.6708 126.173 41.6708 125.753C41.6708 125.335 41.6069 124.952 41.479 124.602C41.354 124.25 41.1609 123.967 40.8995 123.754C40.6381 123.541 40.3086 123.435 39.9109 123.435C39.5103 123.435 39.1779 123.541 38.9137 123.754C38.6523 123.967 38.4577 124.25 38.3299 124.602C38.2049 124.952 38.1424 125.335 38.1424 125.753C38.1424 126.173 38.2049 126.558 38.3299 126.908C38.4577 127.257 38.6523 127.537 38.9137 127.747C39.1779 127.957 39.5103 128.062 39.9109 128.062ZM44.38 129V122.455H45.603V123.52H45.6839C45.8203 123.159 46.0433 122.878 46.353 122.676C46.6626 122.472 47.0334 122.369 47.4652 122.369C47.9027 122.369 48.2692 122.472 48.5646 122.676C48.8629 122.881 49.0831 123.162 49.2251 123.52H49.2933C49.4496 123.17 49.6982 122.892 50.0391 122.685C50.38 122.474 50.7862 122.369 51.2578 122.369C51.8516 122.369 52.3359 122.555 52.7109 122.928C53.0888 123.3 53.2777 123.861 53.2777 124.611V129H52.0036V124.73C52.0036 124.287 51.8828 123.966 51.6413 123.767C51.3999 123.568 51.1115 123.469 50.7763 123.469C50.3615 123.469 50.0391 123.597 49.8089 123.852C49.5788 124.105 49.4638 124.43 49.4638 124.828V129H48.1939V124.649C48.1939 124.294 48.0831 124.009 47.8615 123.793C47.6399 123.577 47.3516 123.469 46.9964 123.469C46.755 123.469 46.532 123.533 46.3274 123.661C46.1257 123.786 45.9624 123.96 45.8374 124.185C45.7152 124.409 45.6541 124.669 45.6541 124.964V129H44.38ZM54.9854 131.455V122.455H56.2298V123.516H56.3363C56.4102 123.379 56.5167 123.222 56.6559 123.043C56.7951 122.864 56.9883 122.707 57.2354 122.574C57.4826 122.438 57.8093 122.369 58.2156 122.369C58.744 122.369 59.2156 122.503 59.6303 122.77C60.0451 123.037 60.3704 123.422 60.6062 123.925C60.8448 124.428 60.9641 125.033 60.9641 125.74C60.9641 126.447 60.8462 127.054 60.6104 127.56C60.3746 128.062 60.0508 128.45 59.6388 128.723C59.2269 128.993 58.7567 129.128 58.2283 129.128C57.8306 129.128 57.5053 129.061 57.2525 128.928C57.0025 128.794 56.8065 128.638 56.6644 128.459C56.5224 128.28 56.413 128.121 56.3363 127.982H56.2596V131.455H54.9854ZM56.234 125.727C56.234 126.187 56.3008 126.591 56.4343 126.938C56.5678 127.284 56.761 127.555 57.0138 127.751C57.2667 127.945 57.5763 128.041 57.9428 128.041C58.3235 128.041 58.6417 127.94 58.8974 127.739C59.1531 127.534 59.3462 127.257 59.4769 126.908C59.6104 126.558 59.6772 126.165 59.6772 125.727C59.6772 125.295 59.6119 124.908 59.4812 124.564C59.3533 124.22 59.1602 123.949 58.9016 123.75C58.646 123.551 58.3263 123.452 57.9428 123.452C57.5735 123.452 57.261 123.547 57.0053 123.737C56.7525 123.928 56.5607 124.193 56.43 124.534C56.2994 124.875 56.234 125.273 56.234 125.727ZM63.6658 120.273V129H62.3917V120.273H63.6658ZM68.201 129.132C67.5561 129.132 67.0007 128.994 66.5348 128.719C66.0717 128.44 65.7138 128.05 65.4609 127.547C65.2109 127.041 65.0859 126.449 65.0859 125.77C65.0859 125.099 65.2109 124.509 65.4609 123.997C65.7138 123.486 66.0661 123.087 66.5178 122.8C66.9723 122.513 67.5036 122.369 68.1115 122.369C68.4808 122.369 68.8388 122.43 69.1854 122.553C69.532 122.675 69.843 122.866 70.1186 123.128C70.3942 123.389 70.6115 123.729 70.7706 124.146C70.9297 124.561 71.0092 125.065 71.0092 125.659V126.111H65.8061V125.156H69.7607C69.7607 124.821 69.6925 124.524 69.5561 124.266C69.4197 124.004 69.228 123.798 68.9808 123.648C68.7365 123.497 68.4496 123.422 68.12 123.422C67.7621 123.422 67.4496 123.51 67.1825 123.686C66.9183 123.859 66.7138 124.087 66.5689 124.368C66.4268 124.646 66.3558 124.949 66.3558 125.276V126.021C66.3558 126.459 66.4325 126.831 66.5859 127.138C66.7422 127.445 66.9595 127.679 67.2379 127.841C67.5163 128 67.8416 128.08 68.2138 128.08C68.4553 128.08 68.6754 128.045 68.8743 127.977C69.0732 127.906 69.245 127.801 69.3899 127.662C69.5348 127.523 69.6456 127.351 69.7223 127.146L70.9283 127.364C70.8317 127.719 70.6584 128.03 70.4084 128.297C70.1612 128.561 69.8501 128.767 69.4751 128.915C69.103 129.06 68.6783 129.132 68.201 129.132ZM75.4783 122.455V123.477H71.9031V122.455H75.4783ZM72.8619 120.886H74.136V127.078C74.136 127.325 74.1729 127.511 74.2468 127.636C74.3207 127.759 74.4158 127.842 74.5323 127.888C74.6516 127.93 74.7809 127.952 74.9201 127.952C75.0224 127.952 75.1119 127.945 75.1886 127.93C75.2653 127.916 75.3249 127.905 75.3675 127.896L75.5977 128.949C75.5238 128.977 75.4187 129.006 75.2823 129.034C75.146 129.065 74.9755 129.082 74.771 129.085C74.4357 129.091 74.1232 129.031 73.8335 128.906C73.5437 128.781 73.3093 128.588 73.1303 128.327C72.9513 128.065 72.8619 127.737 72.8619 127.342V120.886ZM79.6385 129.132C78.9936 129.132 78.4382 128.994 77.9723 128.719C77.5092 128.44 77.1513 128.05 76.8984 127.547C76.6484 127.041 76.5234 126.449 76.5234 125.77C76.5234 125.099 76.6484 124.509 76.8984 123.997C77.1513 123.486 77.5036 123.087 77.9553 122.8C78.4098 122.513 78.9411 122.369 79.549 122.369C79.9183 122.369 80.2763 122.43 80.6229 122.553C80.9695 122.675 81.2805 122.866 81.5561 123.128C81.8317 123.389 82.049 123.729 82.2081 124.146C82.3672 124.561 82.4467 125.065 82.4467 125.659V126.111H77.2436V125.156H81.1982C81.1982 124.821 81.13 124.524 80.9936 124.266C80.8572 124.004 80.6655 123.798 80.4183 123.648C80.174 123.497 79.8871 123.422 79.5575 123.422C79.1996 123.422 78.8871 123.51 78.62 123.686C78.3558 123.859 78.1513 124.087 78.0064 124.368C77.8643 124.646 77.7933 124.949 77.7933 125.276V126.021C77.7933 126.459 77.87 126.831 78.0234 127.138C78.1797 127.445 78.397 127.679 78.6754 127.841C78.9538 128 79.2791 128.08 79.6513 128.08C79.8928 128.08 80.1129 128.045 80.3118 127.977C80.5107 127.906 80.6825 127.801 80.8274 127.662C80.9723 127.523 81.0831 127.351 81.1598 127.146L82.3658 127.364C82.2692 127.719 82.0959 128.03 81.8459 128.297C81.5987 128.561 81.2876 128.767 80.9126 128.915C80.5405 129.06 80.1158 129.132 79.6385 129.132ZM86.3107 129.128C85.7823 129.128 85.3107 128.993 84.896 128.723C84.484 128.45 84.1602 128.062 83.9244 127.56C83.6914 127.054 83.5749 126.447 83.5749 125.74C83.5749 125.033 83.6928 124.428 83.9286 123.925C84.1673 123.422 84.494 123.037 84.9087 122.77C85.3235 122.503 85.7937 122.369 86.3192 122.369C86.7255 122.369 87.0522 122.438 87.2994 122.574C87.5494 122.707 87.7425 122.864 87.8789 123.043C88.0181 123.222 88.1261 123.379 88.2028 123.516H88.2795V120.273H89.5536V129H88.3093V127.982H88.2028C88.1261 128.121 88.0153 128.28 87.8704 128.459C87.7283 128.638 87.5323 128.794 87.2823 128.928C87.0323 129.061 86.7085 129.128 86.3107 129.128ZM86.592 128.041C86.9585 128.041 87.2681 127.945 87.521 127.751C87.7766 127.555 87.9698 127.284 88.1005 126.938C88.234 126.591 88.3008 126.187 88.3008 125.727C88.3008 125.273 88.2354 124.875 88.1048 124.534C87.9741 124.193 87.7823 123.928 87.5295 123.737C87.2766 123.547 86.9641 123.452 86.592 123.452C86.2085 123.452 85.8888 123.551 85.6332 123.75C85.3775 123.949 85.1843 124.22 85.0536 124.564C84.9258 124.908 84.8619 125.295 84.8619 125.727C84.8619 126.165 84.9272 126.558 85.0579 126.908C85.1886 127.257 85.3817 127.534 85.6374 127.739C85.896 127.94 86.2141 128.041 86.592 128.041Z" fill="white"/>
<path d="M58.5 40.1667V46.2917M50.3333 40.1667V52.4167M66.6667 40.1667V52.4167M58.5 69.7709L52.375 72.8334L53.3958 65.6875L49.3125 61.6042L55.4375 60.5834L58.5 54.4584L61.5625 60.5834L67.6875 61.6042L63.6042 65.6875L64.625 72.8334L58.5 69.7709Z" stroke="white" stroke-width="4" stroke-linecap="round" stroke-linejoin="round"/>
</svg>
