<svg width="192" height="192" viewBox="0 0 192 192" fill="none" xmlns="http://www.w3.org/2000/svg">
<g filter="url(#filter0_d_209_1918)">
<circle cx="96" cy="92" r="92" fill="#A15958"/>
<circle cx="96" cy="92" r="91.5" stroke="#A15958"/>
</g>
<path d="M135.167 92.2334V85.5C135.167 83.7142 134.457 82.0016 133.195 80.7388C131.932 79.4761 130.219 78.7667 128.433 78.7667H61.1C59.3142 78.7667 57.6016 79.4761 56.3388 80.7388C55.0761 82.0016 54.3667 83.7142 54.3667 85.5V125.9C54.3667 127.686 55.0761 129.398 56.3388 130.661C57.6016 131.924 59.3142 132.633 61.1 132.633H128.433C130.219 132.633 131.932 131.924 133.195 130.661C134.457 129.398 135.167 127.686 135.167 125.9V119.167M135.167 92.2334H108.233C104.662 92.2334 101.236 93.6522 98.711 96.1777C96.1855 98.7032 94.7667 102.128 94.7667 105.7C94.7667 109.272 96.1855 112.697 98.711 115.222C101.236 117.748 104.662 119.167 108.233 119.167H135.167M135.167 92.2334C138.738 92.2334 142.164 93.6522 144.689 96.1777C147.215 98.7032 148.633 102.128 148.633 105.7C148.633 109.272 147.215 112.697 144.689 115.222C142.164 117.748 138.738 119.167 135.167 119.167M74.5667 78.7667V58.5667C74.5667 53.2093 76.6949 48.0714 80.4831 44.2831C84.2714 40.4949 89.4093 38.3667 94.7667 38.3667C100.124 38.3667 105.262 40.4949 109.05 44.2831C112.838 48.0714 114.967 53.2093 114.967 58.5667V78.7667M131.8 105.7H138.533M118.333 105.7H125.067M104.867 105.7H111.6" stroke="white" stroke-width="9.46667"/>
<defs>
<filter id="filter0_d_209_1918" x="0" y="0" width="192" height="192" filterUnits="userSpaceOnUse" color-interpolation-filters="sRGB">
<feFlood flood-opacity="0" result="BackgroundImageFix"/>
<feColorMatrix in="SourceAlpha" type="matrix" values="0 0 0 0 0 0 0 0 0 0 0 0 0 0 0 0 0 0 127 0" result="hardAlpha"/>
<feOffset dy="4"/>
<feGaussianBlur stdDeviation="2"/>
<feComposite in2="hardAlpha" operator="out"/>
<feColorMatrix type="matrix" values="0 0 0 0 0 0 0 0 0 0 0 0 0 0 0 0 0 0 0.25 0"/>
<feBlend mode="normal" in2="BackgroundImageFix" result="effect1_dropShadow_209_1918"/>
<feBlend mode="normal" in="SourceGraphic" in2="effect1_dropShadow_209_1918" result="shape"/>
</filter>
</defs>
</svg>
