<svg width="45" height="35" viewBox="0 0 45 35" fill="none" xmlns="http://www.w3.org/2000/svg">
<path fill-rule="evenodd" clip-rule="evenodd" d="M0.266064 2.16067C0.530989 1.52105 0.979654 0.974364 1.55531 0.589763C2.13097 0.205162 2.80775 -7.85691e-05 3.50006 2.25626e-08H26.8334C31.4747 2.25626e-08 35.9259 1.84374 39.2078 5.12563C42.4897 8.40752 44.3334 12.8587 44.3334 17.5C44.3334 22.1413 42.4897 26.5925 39.2078 29.8744C35.9259 33.1563 31.4747 35 26.8334 35H5.8334C4.90514 35 4.0149 34.6312 3.35852 33.9749C2.70215 33.3185 2.3334 32.4283 2.3334 31.5C2.3334 30.5717 2.70215 29.6815 3.35852 29.0251C4.0149 28.3687 4.90514 28 5.8334 28H26.8334C29.6182 28 32.2889 26.8938 34.258 24.9246C36.2272 22.9555 37.3334 20.2848 37.3334 17.5C37.3334 14.7152 36.2272 12.0445 34.258 10.0754C32.2889 8.10625 29.6182 7 26.8334 7H11.9491L14.1424 9.19333C14.7796 9.85374 15.132 10.738 15.1236 11.6557C15.1152 12.5734 14.7467 13.4511 14.0975 14.0997C13.4482 14.7483 12.5702 15.116 11.6525 15.1235C10.7348 15.1311 9.85087 14.7779 9.19106 14.14L1.0244 5.97333C0.535295 5.48394 0.202217 4.86057 0.0672438 4.18196C-0.0677298 3.50335 0.00145753 2.79997 0.266064 2.16067Z" fill="#A15958"/>
</svg>
