<svg width="132" height="152" viewBox="0 0 132 152" fill="none" xmlns="http://www.w3.org/2000/svg">
<path d="M57.5781 26.4951C59.8864 18.0625 71.847 18.0625 74.1553 26.4951C75.3513 30.8651 80.4966 32.7548 84.2363 30.1973L84.7432 29.8506C91.8621 24.9814 100.833 32.6797 97.1006 40.4551C95.1575 44.5027 97.9184 49.271 102.417 49.6494C110.956 50.3674 113.248 62.0501 105.325 65.6387C101.233 67.4926 100.29 72.8859 103.512 76.0176C109.684 82.0174 103.876 92.3079 95.5498 90.124L95.0273 89.9863C90.658 88.8402 86.4765 92.3804 86.8857 96.8789C87.6723 105.521 76.5412 109.665 71.4854 102.612L71.251 102.285C68.6083 98.5985 63.1252 98.5985 60.4824 102.285L60.248 102.612C55.1922 109.665 44.0611 105.521 44.8477 96.8789C45.2569 92.3804 41.0754 88.8403 36.7061 89.9863L36.1836 90.124C27.8574 92.308 22.0493 82.0174 28.2217 76.0176C31.4432 72.8859 30.5 67.4925 26.4072 65.6387C18.4852 62.0499 20.7771 50.3674 29.3164 49.6494C33.8149 49.271 36.5749 44.5027 34.6318 40.4551C30.8998 32.6799 39.8704 24.9817 46.9893 29.8506L47.4971 30.1973C51.2367 32.7547 56.3821 30.865 57.5781 26.4951Z" fill="#A15958" stroke="white" stroke-width="2"/>
<path d="M43.8201 126.844L41.3996 118.117H42.7846L44.4849 124.876H44.5658L46.3343 118.117H47.7065L49.4749 124.88H49.5559L51.2519 118.117H52.6411L50.2164 126.844H48.8911L47.0545 120.308H46.9863L45.1496 126.844H43.8201ZM55.916 126.977C55.2711 126.977 54.7157 126.839 54.2498 126.563C53.7867 126.285 53.4288 125.894 53.1759 125.391C52.9259 124.886 52.8009 124.293 52.8009 123.614C52.8009 122.944 52.9259 122.353 53.1759 121.842C53.4288 121.33 53.781 120.931 54.2327 120.644C54.6873 120.357 55.2185 120.214 55.8265 120.214C56.1958 120.214 56.5538 120.275 56.9003 120.397C57.2469 120.519 57.558 120.711 57.8336 120.972C58.1091 121.234 58.3265 121.573 58.4856 121.991C58.6447 122.406 58.7242 122.91 58.7242 123.504V123.955H53.5211V123.001H57.4756C57.4756 122.666 57.4074 122.369 57.2711 122.11C57.1347 121.849 56.943 121.643 56.6958 121.492C56.4515 121.342 56.1645 121.266 55.835 121.266C55.477 121.266 55.1645 121.354 54.8975 121.531C54.6333 121.704 54.4288 121.931 54.2839 122.212C54.1418 122.491 54.0708 122.793 54.0708 123.12V123.866C54.0708 124.303 54.1475 124.675 54.3009 124.982C54.4572 125.289 54.6745 125.523 54.9529 125.685C55.2313 125.844 55.5566 125.924 55.9288 125.924C56.1702 125.924 56.3904 125.89 56.5893 125.822C56.7881 125.751 56.96 125.646 57.1049 125.506C57.2498 125.367 57.3606 125.195 57.4373 124.991L58.6432 125.208C58.5466 125.563 58.3734 125.874 58.1234 126.141C57.8762 126.406 57.5651 126.612 57.1901 126.759C56.818 126.904 56.3932 126.977 55.916 126.977ZM61.4121 118.117V126.844H60.1379V118.117H61.4121ZM65.8833 126.977C65.2498 126.977 64.7043 126.833 64.2469 126.546C63.7924 126.256 63.443 125.857 63.1986 125.349C62.9543 124.84 62.8322 124.258 62.8322 123.602C62.8322 122.937 62.9572 122.35 63.2072 121.842C63.4572 121.33 63.8094 120.931 64.264 120.644C64.7185 120.357 65.254 120.214 65.8705 120.214C66.3677 120.214 66.8109 120.306 67.2001 120.491C67.5893 120.673 67.9032 120.928 68.1418 121.258C68.3833 121.587 68.5268 121.972 68.5722 122.413H67.3322C67.264 122.106 67.1077 121.842 66.8634 121.62C66.6219 121.398 66.2981 121.288 65.8918 121.288C65.5367 121.288 65.2256 121.381 64.9586 121.569C64.6944 121.754 64.4884 122.018 64.3407 122.362C64.193 122.702 64.1191 123.106 64.1191 123.572C64.1191 124.049 64.1915 124.461 64.3364 124.808C64.4813 125.154 64.6859 125.423 64.9501 125.613C65.2171 125.803 65.531 125.898 65.8918 125.898C66.1333 125.898 66.352 125.854 66.5481 125.766C66.7469 125.675 66.9131 125.546 67.0466 125.379C67.183 125.211 67.2782 125.009 67.3322 124.773H68.5722C68.5268 125.197 68.389 125.575 68.1589 125.907C67.9288 126.239 67.6205 126.501 67.2341 126.691C66.8506 126.881 66.4003 126.977 65.8833 126.977ZM72.6919 126.977C72.0783 126.977 71.5427 126.836 71.0854 126.555C70.628 126.273 70.2729 125.88 70.02 125.374C69.7672 124.869 69.6408 124.278 69.6408 123.602C69.6408 122.923 69.7672 122.329 70.02 121.82C70.2729 121.312 70.628 120.917 71.0854 120.636C71.5427 120.354 72.0783 120.214 72.6919 120.214C73.3055 120.214 73.841 120.354 74.2984 120.636C74.7558 120.917 75.1109 121.312 75.3638 121.82C75.6166 122.329 75.743 122.923 75.743 123.602C75.743 124.278 75.6166 124.869 75.3638 125.374C75.1109 125.88 74.7558 126.273 74.2984 126.555C73.841 126.836 73.3055 126.977 72.6919 126.977ZM72.6962 125.907C73.0939 125.907 73.4234 125.802 73.6848 125.592C73.9462 125.381 74.1393 125.102 74.2643 124.752C74.3922 124.403 74.4561 124.018 74.4561 123.597C74.4561 123.18 74.3922 122.796 74.2643 122.447C74.1393 122.094 73.9462 121.812 73.6848 121.599C73.4234 121.386 73.0939 121.279 72.6962 121.279C72.2956 121.279 71.9632 121.386 71.699 121.599C71.4376 121.812 71.243 122.094 71.1152 122.447C70.9902 122.796 70.9277 123.18 70.9277 123.597C70.9277 124.018 70.9902 124.403 71.1152 124.752C71.243 125.102 71.4376 125.381 71.699 125.592C71.9632 125.802 72.2956 125.907 72.6962 125.907ZM77.1653 126.844V120.299H78.3883V121.364H78.4692C78.6056 121.004 78.8286 120.722 79.1383 120.521C79.4479 120.316 79.8187 120.214 80.2505 120.214C80.688 120.214 81.0545 120.316 81.3499 120.521C81.6482 120.725 81.8684 121.006 82.0104 121.364H82.0786C82.2349 121.015 82.4834 120.737 82.8243 120.529C83.1653 120.319 83.5715 120.214 84.0431 120.214C84.6368 120.214 85.1212 120.4 85.4962 120.772C85.8741 121.144 86.063 121.705 86.063 122.455V126.844H84.7888V122.575C84.7888 122.131 84.6681 121.81 84.4266 121.612C84.1851 121.413 83.8968 121.313 83.5616 121.313C83.1468 121.313 82.8243 121.441 82.5942 121.697C82.3641 121.95 82.2491 122.275 82.2491 122.673V126.844H80.9792V122.494C80.9792 122.139 80.8684 121.853 80.6468 121.637C80.4252 121.421 80.1368 121.313 79.7817 121.313C79.5403 121.313 79.3172 121.377 79.1127 121.505C78.911 121.63 78.7476 121.805 78.6226 122.029C78.5005 122.254 78.4394 122.514 78.4394 122.809V126.844H77.1653ZM90.5917 126.977C89.9469 126.977 89.3915 126.839 88.9256 126.563C88.4625 126.285 88.1045 125.894 87.8517 125.391C87.6017 124.886 87.4767 124.293 87.4767 123.614C87.4767 122.944 87.6017 122.353 87.8517 121.842C88.1045 121.33 88.4568 120.931 88.9085 120.644C89.3631 120.357 89.8943 120.214 90.5023 120.214C90.8716 120.214 91.2295 120.275 91.5761 120.397C91.9227 120.519 92.2338 120.711 92.5094 120.972C92.7849 121.234 93.0023 121.573 93.1614 121.991C93.3204 122.406 93.4 122.91 93.4 123.504V123.955H88.1969V123.001H92.1514C92.1514 122.666 92.0832 122.369 91.9469 122.11C91.8105 121.849 91.6187 121.643 91.3716 121.492C91.1273 121.342 90.8403 121.266 90.5108 121.266C90.1528 121.266 89.8403 121.354 89.5733 121.531C89.3091 121.704 89.1045 121.931 88.9596 122.212C88.8176 122.491 88.7466 122.793 88.7466 123.12V123.866C88.7466 124.303 88.8233 124.675 88.9767 124.982C89.1329 125.289 89.3503 125.523 89.6287 125.685C89.9071 125.844 90.2324 125.924 90.6045 125.924C90.846 125.924 91.0662 125.89 91.265 125.822C91.4639 125.751 91.6358 125.646 91.7807 125.506C91.9256 125.367 92.0364 125.195 92.1131 124.991L93.319 125.208C93.2224 125.563 93.0491 125.874 92.7991 126.141C92.552 126.406 92.2409 126.612 91.8659 126.759C91.4937 126.904 91.069 126.977 90.5917 126.977ZM46.8632 141.844V133.117H49.974C50.6502 133.117 51.2112 133.234 51.6573 133.467C52.1061 133.7 52.4414 134.022 52.6629 134.434C52.8845 134.843 52.9953 135.316 52.9953 135.853C52.9953 136.387 52.8831 136.857 52.6587 137.264C52.4371 137.667 52.1019 137.981 51.653 138.205C51.207 138.43 50.6459 138.542 49.9698 138.542H47.6132V137.408H49.8504C50.2766 137.408 50.6232 137.347 50.8902 137.225C51.1601 137.103 51.3576 136.925 51.4826 136.692C51.6076 136.46 51.6701 136.18 51.6701 135.853C51.6701 135.523 51.6061 135.238 51.4783 134.996C51.3533 134.755 51.1558 134.57 50.886 134.442C50.6189 134.312 50.2681 134.246 49.8334 134.246H48.18V141.844H46.8632ZM51.1715 137.907L53.3277 141.844H51.8277L49.7141 137.907H51.1715ZM57.2343 141.977C56.5894 141.977 56.034 141.839 55.5681 141.563C55.1051 141.285 54.7471 140.894 54.4943 140.391C54.2443 139.886 54.1193 139.293 54.1193 138.614C54.1193 137.944 54.2443 137.353 54.4943 136.842C54.7471 136.33 55.0994 135.931 55.5511 135.644C56.0056 135.357 56.5369 135.214 57.1448 135.214C57.5142 135.214 57.8721 135.275 58.2187 135.397C58.5653 135.519 58.8764 135.711 59.1519 135.972C59.4275 136.234 59.6448 136.573 59.8039 136.991C59.963 137.406 60.0426 137.91 60.0426 138.504V138.955H54.8394V138.001H58.794C58.794 137.666 58.7258 137.369 58.5894 137.11C58.4531 136.849 58.2613 136.643 58.0142 136.492C57.7698 136.342 57.4829 136.266 57.1534 136.266C56.7954 136.266 56.4829 136.354 56.2159 136.531C55.9517 136.704 55.7471 136.931 55.6022 137.212C55.4602 137.491 55.3892 137.793 55.3892 138.12V138.866C55.3892 139.303 55.4659 139.675 55.6193 139.982C55.7755 140.289 55.9928 140.523 56.2713 140.685C56.5497 140.844 56.875 140.924 57.2471 140.924C57.4886 140.924 57.7088 140.89 57.9076 140.822C58.1065 140.751 58.2784 140.646 58.4232 140.506C58.5681 140.367 58.6789 140.195 58.7556 139.991L59.9616 140.208C59.865 140.563 59.6917 140.874 59.4417 141.141C59.1946 141.406 58.8835 141.612 58.5085 141.759C58.1363 141.904 57.7116 141.977 57.2343 141.977ZM62.8636 141.844L60.9375 135.299H62.2542L63.5369 140.106H63.6008L64.8877 135.299H66.2045L67.4829 140.085H67.5468L68.821 135.299H70.1377L68.2159 141.844H66.9161L65.5866 137.119H65.4886L64.159 141.844H62.8636ZM73.2517 141.989C72.837 141.989 72.462 141.913 72.1267 141.759C71.7915 141.603 71.5259 141.377 71.3299 141.082C71.1367 140.786 71.0401 140.424 71.0401 139.995C71.0401 139.626 71.1111 139.322 71.2531 139.083C71.3952 138.844 71.587 138.656 71.8284 138.516C72.0699 138.377 72.3398 138.272 72.6381 138.201C72.9364 138.13 73.2404 138.076 73.55 138.039C73.9421 137.994 74.2603 137.957 74.5046 137.928C74.7489 137.897 74.9264 137.847 75.0372 137.779C75.148 137.711 75.2034 137.6 75.2034 137.447V137.417C75.2034 137.045 75.0983 136.756 74.8881 136.552C74.6807 136.347 74.371 136.245 73.9591 136.245C73.5301 136.245 73.1921 136.34 72.9449 136.531C72.7006 136.718 72.5316 136.927 72.4378 137.157L71.2404 136.884C71.3824 136.487 71.5898 136.166 71.8625 135.921C72.1381 135.674 72.4549 135.495 72.8128 135.384C73.1708 135.271 73.5472 135.214 73.9421 135.214C74.2034 135.214 74.4804 135.245 74.773 135.308C75.0685 135.367 75.3441 135.478 75.5997 135.64C75.8583 135.802 76.0699 136.033 76.2347 136.335C76.3995 136.633 76.4818 137.021 76.4818 137.498V141.844H75.2375V140.95H75.1864C75.104 141.114 74.9804 141.276 74.8156 141.435C74.6509 141.594 74.4392 141.727 74.1807 141.832C73.9222 141.937 73.6125 141.989 73.2517 141.989ZM73.5287 140.967C73.881 140.967 74.1821 140.897 74.4321 140.758C74.685 140.619 74.8767 140.437 75.0074 140.212C75.1409 139.985 75.2077 139.742 75.2077 139.484V138.64C75.1622 138.685 75.0742 138.728 74.9435 138.768C74.8156 138.805 74.6693 138.837 74.5046 138.866C74.3398 138.891 74.1793 138.916 74.023 138.938C73.8668 138.958 73.7361 138.975 73.631 138.989C73.3838 139.021 73.158 139.073 72.9534 139.147C72.7517 139.221 72.5898 139.327 72.4676 139.467C72.3483 139.603 72.2887 139.785 72.2887 140.012C72.2887 140.327 72.4051 140.566 72.6381 140.728C72.871 140.887 73.1679 140.967 73.5287 140.967ZM78.1789 141.844V135.299H79.4105V136.339H79.4786C79.598 135.987 79.8082 135.71 80.1093 135.508C80.4133 135.303 80.7571 135.201 81.1406 135.201C81.2201 135.201 81.3139 135.204 81.4218 135.21C81.5326 135.215 81.6193 135.222 81.6818 135.231V136.45C81.6306 136.435 81.5397 136.42 81.409 136.403C81.2784 136.383 81.1477 136.373 81.017 136.373C80.7159 136.373 80.4474 136.437 80.2116 136.565C79.9786 136.69 79.794 136.864 79.6576 137.089C79.5213 137.31 79.4531 137.563 79.4531 137.847V141.844H78.1789ZM85.0003 141.972C84.4719 141.972 84.0003 141.837 83.5855 141.567C83.1736 141.295 82.8497 140.907 82.6139 140.404C82.381 139.898 82.2645 139.292 82.2645 138.585C82.2645 137.877 82.3824 137.272 82.6182 136.769C82.8568 136.266 83.1835 135.881 83.5983 135.614C84.0131 135.347 84.4833 135.214 85.0088 135.214C85.4151 135.214 85.7418 135.282 85.9889 135.418C86.2389 135.552 86.4321 135.708 86.5685 135.887C86.7077 136.066 86.8156 136.224 86.8924 136.36H86.9691V133.117H88.2432V141.844H86.9989V140.826H86.8924C86.8156 140.965 86.7049 141.124 86.56 141.303C86.4179 141.482 86.2219 141.639 85.9719 141.772C85.7219 141.906 85.398 141.972 85.0003 141.972ZM85.2816 140.886C85.648 140.886 85.9577 140.789 86.2105 140.596C86.4662 140.4 86.6594 140.129 86.7901 139.782C86.9236 139.435 86.9904 139.032 86.9904 138.572C86.9904 138.117 86.925 137.719 86.7943 137.379C86.6637 137.038 86.4719 136.772 86.2191 136.582C85.9662 136.391 85.6537 136.296 85.2816 136.296C84.898 136.296 84.5784 136.396 84.3228 136.594C84.0671 136.793 83.8739 137.065 83.7432 137.408C83.6154 137.752 83.5514 138.14 83.5514 138.572C83.5514 139.009 83.6168 139.403 83.7475 139.752C83.8781 140.102 84.0713 140.379 84.327 140.583C84.5855 140.785 84.9037 140.886 85.2816 140.886Z" fill="white"/>
<path d="M65.8669 45.2246V52.1209M56.6718 45.2246V59.0172M75.062 45.2246V59.0172M65.8669 78.5567L58.9706 82.0049L60.12 73.9592L55.5225 69.3616L62.4188 68.2123L65.8669 61.316L69.3151 68.2123L76.2113 69.3616L71.6138 73.9592L72.7632 82.0049L65.8669 78.5567Z" stroke="white" stroke-width="4" stroke-linecap="round" stroke-linejoin="round"/>
</svg>
