<svg width="43" height="34" viewBox="0 0 43 34" fill="none" xmlns="http://www.w3.org/2000/svg">
<path fill-rule="evenodd" clip-rule="evenodd" d="M0.258062 2.09893C0.515019 1.47759 0.950189 0.946525 1.50853 0.572913C2.06687 0.1993 2.7233 -7.63243e-05 3.39479 2.19179e-08H26.0263C30.528 2.19179e-08 34.8454 1.79107 38.0285 4.97918C41.2117 8.1673 43 12.4913 43 17C43 21.5087 41.2117 25.8327 38.0285 29.0208C34.8454 32.2089 30.528 34 26.0263 34H5.65795C4.75761 34 3.89415 33.6418 3.25751 33.0042C2.62087 32.3665 2.26322 31.5017 2.26322 30.6C2.26322 29.6983 2.62087 28.8335 3.25751 28.1958C3.89415 27.5582 4.75761 27.2 5.65795 27.2H26.0263C28.7274 27.2 31.3178 26.1254 33.2277 24.2125C35.1376 22.2996 36.2105 19.7052 36.2105 17C36.2105 14.2948 35.1376 11.7004 33.2277 9.78751C35.9287 9.78751 31.3178 7.87464 33.2277 9.78751L11.5897 6.8L13.717 8.93067C14.3351 9.5722 14.6769 10.4312 14.6687 11.3227C14.6606 12.2142 14.3032 13.0668 13.6735 13.6968C13.0438 14.3269 12.1921 14.6841 11.302 14.6914C10.4119 14.6988 9.55459 14.3556 8.91463 13.736L0.993587 5.80267C0.519196 5.32726 0.196135 4.72169 0.0652214 4.06248C-0.0656927 3.40326 0.00141368 2.71997 0.258062 2.09893Z" fill="#485F88"/>
</svg>
