<svg width="40" height="40" viewBox="0 0 40 40" fill="none" xmlns="http://www.w3.org/2000/svg">
<path d="M14.9997 24.8616V25.8333C14.9997 27.8224 15.7899 29.73 17.1964 31.1366C18.6029 32.5431 20.5106 33.3333 22.4997 33.3333C24.4888 33.3333 26.3965 32.5431 27.803 31.1366C29.2095 29.73 29.9997 27.8224 29.9997 25.8333V23.0499C28.8872 22.6567 27.9495 21.8829 27.3524 20.8652C26.7553 19.8476 26.5372 18.6515 26.7367 17.4886C26.9361 16.3257 27.5403 15.2707 28.4424 14.5101C29.3445 13.7496 30.4864 13.3324 31.6663 13.3324C32.8463 13.3324 33.9882 13.7496 34.8903 14.5101C35.7924 15.2707 36.3966 16.3257 36.596 17.4886C36.7955 18.6515 36.5774 19.8476 35.9803 20.8652C35.3832 21.8829 34.4455 22.6567 33.333 23.0499V25.8333C33.333 28.7064 32.1916 31.4619 30.16 33.4936C28.1284 35.5252 25.3729 36.6666 22.4997 36.6666C19.6265 36.6666 16.871 35.5252 14.8394 33.4936C12.8077 31.4619 11.6663 28.7064 11.6663 25.8333V24.8616C9.33593 24.4677 7.22036 23.2611 5.69489 21.4558C4.16941 19.6506 3.33265 17.3634 3.33301 14.9999V6.66659C3.33301 5.78253 3.6842 4.93468 4.30932 4.30956C4.93444 3.68444 5.78229 3.33325 6.66634 3.33325H8.33301C8.77504 3.33325 9.19896 3.50885 9.51152 3.82141C9.82408 4.13397 9.99967 4.55789 9.99967 4.99992C9.99967 5.44195 9.82408 5.86587 9.51152 6.17843C9.19896 6.49099 8.77504 6.66659 8.33301 6.66659H6.66634V14.9999C6.66634 16.768 7.36872 18.4637 8.61896 19.714C9.86921 20.9642 11.5649 21.6666 13.333 21.6666C15.1011 21.6666 16.7968 20.9642 18.0471 19.714C19.2973 18.4637 19.9997 16.768 19.9997 14.9999V6.66659H18.333C17.891 6.66659 17.4671 6.49099 17.1545 6.17843C16.8419 5.86587 16.6663 5.44195 16.6663 4.99992C16.6663 4.55789 16.8419 4.13397 17.1545 3.82141C17.4671 3.50885 17.891 3.33325 18.333 3.33325H19.9997C20.8837 3.33325 21.7316 3.68444 22.3567 4.30956C22.9818 4.93468 23.333 5.78253 23.333 6.66659V14.9999C23.3334 17.3634 22.4966 19.6506 20.9711 21.4558C19.4457 23.2611 17.3301 24.4677 14.9997 24.8616ZM31.6663 19.9999C32.1084 19.9999 32.5323 19.8243 32.8449 19.5118C33.1574 19.1992 33.333 18.7753 33.333 18.3333C33.333 17.8912 33.1574 17.4673 32.8449 17.1547C32.5323 16.8422 32.1084 16.6666 31.6663 16.6666C31.2243 16.6666 30.8004 16.8422 30.4878 17.1547C30.1753 17.4673 29.9997 17.8912 29.9997 18.3333C29.9997 18.7753 30.1753 19.1992 30.4878 19.5118C30.8004 19.8243 31.2243 19.9999 31.6663 19.9999Z" fill="#384C65"/>
</svg>
