<svg width="20" height="20" viewBox="0 0 20 20" fill="none" xmlns="http://www.w3.org/2000/svg">
<circle cx="10" cy="10" r="10" fill="white"/>
<path fill-rule="evenodd" clip-rule="evenodd" d="M7.97032 10.53C7.82987 10.3893 7.75098 10.1987 7.75098 9.99995C7.75098 9.8012 7.82987 9.61058 7.97032 9.46995L10.7983 6.64095C10.939 6.50032 11.1298 6.42134 11.3287 6.42139C11.4272 6.42141 11.5248 6.44083 11.6158 6.47855C11.7068 6.51627 11.7894 6.57153 11.8591 6.6412C11.9287 6.71087 11.9839 6.79357 12.0216 6.88458C12.0593 6.97559 12.0787 7.07313 12.0786 7.17163C12.0786 7.27013 12.0592 7.36766 12.0215 7.45865C11.9838 7.54964 11.9285 7.63232 11.8588 7.70195L9.56132 9.99995L11.8593 12.298C11.931 12.3671 11.9882 12.4498 12.0275 12.5413C12.0669 12.6328 12.0876 12.7312 12.0885 12.8308C12.0894 12.9304 12.0705 13.0291 12.0328 13.1213C11.9951 13.2135 11.9395 13.2973 11.8691 13.3677C11.7987 13.4382 11.715 13.4939 11.6229 13.5317C11.5307 13.5694 11.432 13.5885 11.3324 13.5876C11.2328 13.5868 11.1344 13.5662 11.0428 13.5269C10.9513 13.4876 10.8685 13.4306 10.7993 13.359L7.96932 10.53H7.97032Z" fill="#0A0B13"/>
</svg>
