<svg width="18" height="18" viewBox="0 0 18 18" fill="none" xmlns="http://www.w3.org/2000/svg">
<path fill-rule="evenodd" clip-rule="evenodd" d="M2.25 3.75C2.25 3.15326 2.48705 2.58097 2.90901 2.15901C3.33097 1.73705 3.90326 1.5 4.5 1.5H13.5C14.0967 1.5 14.669 1.73705 15.091 2.15901C15.5129 2.58097 15.75 3.15326 15.75 3.75V14.25C15.75 14.8467 15.5129 15.419 15.091 15.841C14.669 16.2629 14.0967 16.5 13.5 16.5H4.5C3.90326 16.5 3.33097 16.2629 2.90901 15.841C2.48705 15.419 2.25 14.8467 2.25 14.25V3.75ZM6 3.75V9L7.71975 7.28025C7.8604 7.13965 8.05113 7.06066 8.25 7.06066C8.44887 7.06066 8.6396 7.13965 8.78025 7.28025L10.5 9V3.75C10.5 3.55109 10.421 3.36032 10.2803 3.21967C10.1397 3.07902 9.94891 3 9.75 3H6.75C6.55109 3 6.36032 3.07902 6.21967 3.21967C6.07902 3.36032 6 3.55109 6 3.75Z" fill="#384C65"/>
</svg>
