<svg width="18" height="20" viewBox="0 0 18 20" fill="none" xmlns="http://www.w3.org/2000/svg">
<path d="M10 5.3V1.06C10 0.759667 10.096 0.508093 10.288 0.30528C10.48 0.102467 10.7173 0.000706667 11 0H17C17.2833 0 17.521 0.10176 17.713 0.30528C17.905 0.5088 18.0007 0.760373 18 1.06V5.3C18 5.60033 17.904 5.85226 17.712 6.05578C17.52 6.2593 17.2827 6.36071 17 6.36H11C10.7167 6.36 10.4793 6.25824 10.288 6.05472C10.0967 5.8512 10.0007 5.59963 10 5.3ZM0 9.54V1.06C0 0.759667 0.0960001 0.508093 0.288 0.30528C0.48 0.102467 0.717333 0.000706667 1 0H7C7.28333 0 7.521 0.10176 7.713 0.30528C7.905 0.5088 8.00067 0.760373 8 1.06V9.54C8 9.84033 7.904 10.0923 7.712 10.2958C7.52 10.4993 7.28267 10.6007 7 10.6H1C0.716667 10.6 0.479333 10.4982 0.288 10.2947C0.0966668 10.0912 0.000666667 9.83963 0 9.54ZM10 18.02V9.54C10 9.23967 10.096 8.98809 10.288 8.78528C10.48 8.58247 10.7173 8.48071 11 8.48H17C17.2833 8.48 17.521 8.58176 17.713 8.78528C17.905 8.9888 18.0007 9.24037 18 9.54V18.02C18 18.3203 17.904 18.5723 17.712 18.7758C17.52 18.9793 17.2827 19.0807 17 19.08H11C10.7167 19.08 10.4793 18.9782 10.288 18.7747C10.0967 18.5712 10.0007 18.3196 10 18.02ZM0 18.02V13.78C0 13.4797 0.0960001 13.2281 0.288 13.0253C0.48 12.8225 0.717333 12.7207 1 12.72H7C7.28333 12.72 7.521 12.8218 7.713 13.0253C7.905 13.2288 8.00067 13.4804 8 13.78V18.02C8 18.3203 7.904 18.5723 7.712 18.7758C7.52 18.9793 7.28267 19.0807 7 19.08H1C0.716667 19.08 0.479333 18.9782 0.288 18.7747C0.0966668 18.5712 0.000666667 18.3196 0 18.02ZM2 8.48H6V2.12H2V8.48ZM12 16.96H16V10.6H12V16.96ZM12 4.24H16V2.12H12V4.24ZM2 16.96H6V14.84H2V16.96Z" fill="#121524"/>
</svg>
