<svg width="40" height="38" viewBox="0 0 40 38" fill="none" xmlns="http://www.w3.org/2000/svg">
<path d="M32 0C34.1217 0 36.1566 0.842854 37.6569 2.34315C39.1571 3.84344 40 5.87827 40 8V24C40 26.1217 39.1571 28.1566 37.6569 29.6569C36.1566 31.1571 34.1217 32 32 32H22.552L13.028 37.714C12.7412 37.8861 12.4158 37.9836 12.0815 37.9974C11.7473 38.0112 11.415 37.941 11.1149 37.7932C10.8149 37.6453 10.5567 37.4246 10.364 37.1511C10.1713 36.8777 10.0503 36.5603 10.012 36.228L10 36V32H8C5.94752 32 3.97354 31.2111 2.48638 29.7966C0.999209 28.382 0.112624 26.4499 0.0100002 24.4L0 24V8C0 5.87827 0.842855 3.84344 2.34315 2.34315C3.84344 0.842854 5.87827 0 8 0H32ZM26.4 18.572C26.0212 18.2007 25.5105 17.9951 24.9802 18.0004C24.4499 18.0056 23.9433 18.2213 23.572 18.6C23.1064 19.0753 22.5507 19.4529 21.9373 19.7107C21.324 19.9685 20.6653 20.1013 20 20.1013C19.3347 20.1013 18.676 19.9685 18.0627 19.7107C17.4493 19.4529 16.8936 19.0753 16.428 18.6C16.0548 18.2301 15.551 18.0219 15.0255 18.0204C14.5 18.019 13.9951 18.2244 13.6199 18.5923C13.2446 18.9601 13.0292 19.4609 13.0203 19.9863C13.0113 20.5117 13.2095 21.0195 13.572 21.4C14.41 22.2551 15.4101 22.9344 16.5138 23.3981C17.6176 23.8619 18.8028 24.1007 20 24.1007C21.1972 24.1007 22.3824 23.8619 23.4862 23.3981C24.5899 22.9344 25.59 22.2551 26.428 21.4C26.7993 21.0212 27.0049 20.5105 26.9996 19.9802C26.9944 19.4499 26.7787 18.9433 26.4 18.572ZM15.02 10H15C14.4696 10 13.9609 10.2107 13.5858 10.5858C13.2107 10.9609 13 11.4696 13 12C13 12.5304 13.2107 13.0391 13.5858 13.4142C13.9609 13.7893 14.4696 14 15 14H15.02C15.5504 14 16.0591 13.7893 16.4342 13.4142C16.8093 13.0391 17.02 12.5304 17.02 12C17.02 11.4696 16.8093 10.9609 16.4342 10.5858C16.0591 10.2107 15.5504 10 15.02 10ZM25.02 10H25C24.4696 10 23.9609 10.2107 23.5858 10.5858C23.2107 10.9609 23 11.4696 23 12C23 12.5304 23.2107 13.0391 23.5858 13.4142C23.9609 13.7893 24.4696 14 25 14H25.02C25.5504 14 26.0591 13.7893 26.4342 13.4142C26.8093 13.0391 27.02 12.5304 27.02 12C27.02 11.4696 26.8093 10.9609 26.4342 10.5858C26.0591 10.2107 25.5504 10 25.02 10Z" fill="#121524"/>
</svg>
