<svg width="49" height="55" viewBox="0 0 49 55" fill="none" xmlns="http://www.w3.org/2000/svg">
<path d="M3.60955 54H0.000177547V43.8182H3.63938C4.66353 43.8182 5.54516 44.022 6.28427 44.4297C7.02338 44.834 7.5918 45.4157 7.98952 46.1747C8.39057 46.9337 8.59109 47.8419 8.59109 48.8991C8.59109 49.9598 8.39057 50.8712 7.98952 51.6335C7.5918 52.3958 7.02006 52.9808 6.27433 53.3885C5.5319 53.7962 4.64364 54 3.60955 54ZM2.15288 52.1555H3.52006C4.15643 52.1555 4.6917 52.0429 5.12589 51.8175C5.56339 51.5888 5.89151 51.2358 6.11026 50.7585C6.33233 50.2779 6.44336 49.6581 6.44336 48.8991C6.44336 48.1468 6.33233 47.532 6.11026 47.0547C5.89151 46.5774 5.56505 46.2261 5.13086 46.0007C4.69667 45.7753 4.1614 45.6626 3.52504 45.6626H2.15288V52.1555ZM10.146 54V46.3636H12.2638V54H10.146ZM11.2099 45.3793C10.895 45.3793 10.6249 45.2749 10.3995 45.0661C10.1774 44.8539 10.0664 44.6004 10.0664 44.3054C10.0664 44.0137 10.1774 43.7635 10.3995 43.5547C10.6249 43.3426 10.895 43.2365 11.2099 43.2365C11.5247 43.2365 11.7932 43.3426 12.0153 43.5547C12.2406 43.7635 12.3533 44.0137 12.3533 44.3054C12.3533 44.6004 12.2406 44.8539 12.0153 45.0661C11.7932 45.2749 11.5247 45.3793 11.2099 45.3793ZM16.138 54.1442C15.6507 54.1442 15.2166 54.0597 14.8354 53.8906C14.4542 53.7183 14.1526 53.4647 13.9306 53.13C13.7118 52.7919 13.6025 52.371 13.6025 51.8672C13.6025 51.4429 13.6803 51.0866 13.8361 50.7983C13.9919 50.5099 14.204 50.2779 14.4725 50.1023C14.7409 49.9266 15.0459 49.794 15.3873 49.7045C15.7319 49.6151 16.0932 49.5521 16.4711 49.5156C16.9152 49.4692 17.2731 49.4261 17.5449 49.3864C17.8167 49.3433 18.0139 49.2803 18.1365 49.1974C18.2592 49.1146 18.3205 48.992 18.3205 48.8295V48.7997C18.3205 48.4848 18.2211 48.2412 18.0222 48.0689C17.8266 47.8965 17.5482 47.8104 17.187 47.8104C16.8058 47.8104 16.5025 47.8949 16.2772 48.0639C16.0518 48.2296 15.9026 48.4384 15.8297 48.6903L13.8709 48.5312C13.9703 48.0672 14.1659 47.6662 14.4576 47.3281C14.7492 46.9867 15.1254 46.7249 15.5861 46.5426C16.0501 46.357 16.5871 46.2642 17.1969 46.2642C17.6212 46.2642 18.0272 46.3139 18.415 46.4134C18.806 46.5128 19.1524 46.6669 19.454 46.8757C19.7589 47.0845 19.9992 47.353 20.1749 47.6811C20.3506 48.0059 20.4384 48.3954 20.4384 48.8494V54H18.4299V52.9411H18.3702C18.2476 53.1797 18.0835 53.3902 17.878 53.5724C17.6725 53.7514 17.4256 53.8923 17.1373 53.995C16.8489 54.0945 16.5158 54.1442 16.138 54.1442ZM16.7445 52.6825C17.056 52.6825 17.3311 52.6212 17.5698 52.4986C17.8084 52.3726 17.9957 52.2036 18.1316 51.9915C18.2675 51.7794 18.3354 51.5391 18.3354 51.2706V50.4602C18.2691 50.5033 18.178 50.5431 18.062 50.5795C17.9493 50.6127 17.8217 50.6442 17.6792 50.674C17.5366 50.7005 17.3941 50.7254 17.2516 50.7486C17.1091 50.7685 16.9798 50.7867 16.8638 50.8033C16.6152 50.8397 16.3981 50.8977 16.2125 50.9773C16.0269 51.0568 15.8828 51.1645 15.78 51.3004C15.6773 51.433 15.6259 51.5987 15.6259 51.7976C15.6259 52.0859 15.7303 52.3063 15.9391 52.4588C16.1512 52.608 16.4197 52.6825 16.7445 52.6825ZM25.3615 54V43.8182H29.4382C30.1873 43.8182 30.812 43.9292 31.3125 44.1513C31.813 44.3733 32.1892 44.6816 32.4411 45.076C32.6929 45.4671 32.8189 45.9179 32.8189 46.4283C32.8189 46.826 32.7393 47.1757 32.5803 47.4773C32.4212 47.7756 32.2024 48.0208 31.924 48.2131C31.6489 48.402 31.334 48.5362 30.9794 48.6158V48.7152C31.3672 48.7318 31.7301 48.8411 32.0682 49.0433C32.4096 49.2455 32.6863 49.5289 32.8984 49.8935C33.1106 50.2547 33.2166 50.6856 33.2166 51.1861C33.2166 51.7263 33.0824 52.2086 32.8139 52.6328C32.5488 53.0537 32.156 53.3868 31.6357 53.6321C31.1153 53.8774 30.474 54 29.7116 54H25.3615ZM27.5142 52.2401H29.2692C29.8691 52.2401 30.3066 52.1257 30.5817 51.897C30.8568 51.665 30.9943 51.3568 30.9943 50.9723C30.9943 50.6906 30.9264 50.442 30.7905 50.2266C30.6546 50.0111 30.4607 49.8421 30.2088 49.7195C29.9602 49.5968 29.6636 49.5355 29.3189 49.5355H27.5142V52.2401ZM27.5142 48.0788H29.1101C29.4051 48.0788 29.6669 48.0275 29.8956 47.9247C30.1276 47.8187 30.3099 47.6695 30.4425 47.4773C30.5784 47.285 30.6463 47.0547 30.6463 46.7862C30.6463 46.4183 30.5154 46.1217 30.2536 45.8963C29.995 45.6709 29.6271 45.5582 29.1499 45.5582H27.5142V48.0788ZM38.0279 54.1491C37.2556 54.1491 36.5878 53.9851 36.0243 53.657C35.4642 53.3255 35.0317 52.8648 34.7267 52.2749C34.4218 51.6816 34.2694 50.9938 34.2694 50.2116C34.2694 49.4228 34.4218 48.7334 34.7267 48.1435C35.0317 47.5502 35.4642 47.0895 36.0243 46.7614C36.5878 46.4299 37.2556 46.2642 38.0279 46.2642C38.8001 46.2642 39.4663 46.4299 40.0265 46.7614C40.5899 47.0895 41.0241 47.5502 41.329 48.1435C41.6339 48.7334 41.7864 49.4228 41.7864 50.2116C41.7864 50.9938 41.6339 51.6816 41.329 52.2749C41.0241 52.8648 40.5899 53.3255 40.0265 53.657C39.4663 53.9851 38.8001 54.1491 38.0279 54.1491ZM38.0378 52.5085C38.3891 52.5085 38.6825 52.4091 38.9178 52.2102C39.1531 52.008 39.3304 51.733 39.4498 51.3849C39.5724 51.0369 39.6337 50.6409 39.6337 50.1967C39.6337 49.7526 39.5724 49.3565 39.4498 49.0085C39.3304 48.6605 39.1531 48.3854 38.9178 48.1832C38.6825 47.9811 38.3891 47.88 38.0378 47.88C37.6832 47.88 37.3849 47.9811 37.1429 48.1832C36.9043 48.3854 36.7237 48.6605 36.601 49.0085C36.4817 49.3565 36.4221 49.7526 36.4221 50.1967C36.4221 50.6409 36.4817 51.0369 36.601 51.3849C36.7237 51.733 36.9043 52.008 37.1429 52.2102C37.3849 52.4091 37.6832 52.5085 38.0378 52.5085ZM47.2253 46.3636V47.9545H42.6266V46.3636H47.2253ZM43.6706 44.5341H45.7885V51.6534C45.7885 51.849 45.8184 52.0014 45.878 52.1108C45.9377 52.2169 46.0205 52.2914 46.1266 52.3345C46.236 52.3776 46.3619 52.3991 46.5044 52.3991C46.6039 52.3991 46.7033 52.3909 46.8027 52.3743C46.9022 52.3544 46.9784 52.3395 47.0314 52.3295L47.3645 53.9055C47.2585 53.9387 47.1093 53.9768 46.9171 54.0199C46.7248 54.0663 46.4912 54.0945 46.2161 54.1044C45.7057 54.1243 45.2582 54.0563 44.8738 53.9006C44.4926 53.7448 44.196 53.5028 43.9838 53.1747C43.7717 52.8466 43.6673 52.4323 43.6706 51.9318V44.5341Z" fill="#121524"/>
<path d="M36.1152 2C38.237 2 40.2718 2.84285 41.7721 4.34315C43.2724 5.84344 44.1152 7.87827 44.1152 10V26C44.1152 28.1217 43.2724 30.1566 41.7721 31.6569C40.2718 33.1571 38.237 34 36.1152 34H26.6672L17.1432 39.714C16.8564 39.8861 16.531 39.9836 16.1968 39.9974C15.8626 40.0112 15.5302 39.941 15.2302 39.7932C14.9301 39.6453 14.6719 39.4246 14.4792 39.1511C14.2865 38.8777 14.1655 38.5603 14.1272 38.228L14.1152 38V34H12.1152C10.0627 34 8.08878 33.2111 6.60161 31.7966C5.11444 30.382 4.22786 28.4499 4.12523 26.4L4.11523 26V10C4.11523 7.87827 4.95809 5.84344 6.45838 4.34315C7.95867 2.84285 9.9935 2 12.1152 2H36.1152ZM30.5152 20.572C30.1365 20.2007 29.6258 19.9951 29.0954 20.0004C28.5651 20.0056 28.0586 20.2213 27.6872 20.6C27.2217 21.0753 26.6659 21.4529 26.0526 21.7107C25.4392 21.9685 24.7806 22.1013 24.1152 22.1013C23.4499 22.1013 22.7913 21.9685 22.1779 21.7107C21.5645 21.4529 21.0088 21.0753 20.5432 20.6C20.17 20.2301 19.6662 20.0219 19.1408 20.0204C18.6153 20.019 18.1103 20.2244 17.7351 20.5923C17.3599 20.9601 17.1445 21.4609 17.1355 21.9863C17.1266 22.5117 17.3248 23.0195 17.6872 23.4C18.5252 24.2551 19.5253 24.9344 20.6291 25.3981C21.7328 25.8619 22.918 26.1007 24.1152 26.1007C25.3125 26.1007 26.4976 25.8619 27.6014 25.3981C28.7051 24.9344 29.7053 24.2551 30.5432 23.4C30.9145 23.0212 31.1201 22.5105 31.1148 21.9802C31.1096 21.4499 30.8939 20.9433 30.5152 20.572ZM19.1352 12H19.1152C18.5848 12 18.0761 12.2107 17.701 12.5858C17.3259 12.9609 17.1152 13.4696 17.1152 14C17.1152 14.5304 17.3259 15.0391 17.701 15.4142C18.0761 15.7893 18.5848 16 19.1152 16H19.1352C19.6657 16 20.1744 15.7893 20.5494 15.4142C20.9245 15.0391 21.1352 14.5304 21.1352 14C21.1352 13.4696 20.9245 12.9609 20.5494 12.5858C20.1744 12.2107 19.6657 12 19.1352 12ZM29.1352 12H29.1152C28.5848 12 28.0761 12.2107 27.701 12.5858C27.3259 12.9609 27.1152 13.4696 27.1152 14C27.1152 14.5304 27.3259 15.0391 27.701 15.4142C28.0761 15.7893 28.5848 16 29.1152 16H29.1352C29.6657 16 30.1744 15.7893 30.5494 15.4142C30.9245 15.0391 31.1352 14.5304 31.1352 14C31.1352 13.4696 30.9245 12.9609 30.5494 12.5858C30.1744 12.2107 29.6657 12 29.1352 12Z" fill="#121524"/>
</svg>
