<svg width="30" height="30" viewBox="0 0 30 30" fill="none" xmlns="http://www.w3.org/2000/svg">
<path d="M6.25 23.75H8.75C9.10417 23.75 9.40125 23.87 9.64125 24.11C9.88125 24.35 10.0008 24.6467 10 25C9.99917 25.3533 9.87917 25.6504 9.64 25.8912C9.40083 26.1321 9.10417 26.2517 8.75 26.25H5C4.64583 26.25 4.34917 26.13 4.11 25.89C3.87083 25.65 3.75083 25.3533 3.75 25V21.25C3.75 20.8958 3.87 20.5992 4.11 20.36C4.35 20.1208 4.64667 20.0008 5 20C5.35333 19.9992 5.65042 20.1192 5.89125 20.36C6.13208 20.6008 6.25167 20.8975 6.25 21.25V23.75ZM23.75 23.75V21.25C23.75 20.8958 23.87 20.5992 24.11 20.36C24.35 20.1208 24.6467 20.0008 25 20C25.3533 19.9992 25.6504 20.1192 25.8912 20.36C26.1321 20.6008 26.2517 20.8975 26.25 21.25V25C26.25 25.3542 26.13 25.6512 25.89 25.8912C25.65 26.1312 25.3533 26.2508 25 26.25H21.25C20.8958 26.25 20.5992 26.13 20.36 25.89C20.1208 25.65 20.0008 25.3533 20 25C19.9992 24.6467 20.1192 24.35 20.36 24.11C20.6008 23.87 20.8975 23.75 21.25 23.75H23.75ZM6.25 6.25V8.75C6.25 9.10417 6.13 9.40125 5.89 9.64125C5.65 9.88125 5.35333 10.0008 5 10C4.64667 9.99917 4.35 9.87917 4.11 9.64C3.87 9.40083 3.75 9.10417 3.75 8.75V5C3.75 4.64583 3.87 4.34917 4.11 4.11C4.35 3.87083 4.64667 3.75083 5 3.75H8.75C9.10417 3.75 9.40125 3.87 9.64125 4.11C9.88125 4.35 10.0008 4.64667 10 5C9.99917 5.35333 9.87917 5.65042 9.64 5.89125C9.40083 6.13208 9.10417 6.25167 8.75 6.25H6.25ZM23.75 6.25H21.25C20.8958 6.25 20.5992 6.13 20.36 5.89C20.1208 5.65 20.0008 5.35333 20 5C19.9992 4.64667 20.1192 4.35 20.36 4.11C20.6008 3.87 20.8975 3.75 21.25 3.75H25C25.3542 3.75 25.6512 3.87 25.8912 4.11C26.1312 4.35 26.2508 4.64667 26.25 5V8.75C26.25 9.10417 26.13 9.40125 25.89 9.64125C25.65 9.88125 25.3533 10.0008 25 10C24.6467 9.99917 24.35 9.87917 24.11 9.64C23.87 9.40083 23.75 9.10417 23.75 8.75V6.25Z" fill="#121524"/>
</svg>
