<svg width="38" height="38" viewBox="0 0 38 38" fill="none" xmlns="http://www.w3.org/2000/svg">
<path d="M17.8756 32.7116C18.1923 33.0282 18.5881 33.1707 18.9998 33.1707C19.4114 33.1707 19.8073 33.0124 20.1239 32.7116L31.9989 20.8366C35.7197 17.1157 35.7197 11.2574 31.9989 7.52072C28.3572 3.91072 22.7364 3.79989 18.9998 7.20405C15.2631 3.79989 9.64225 3.89489 6.00059 7.52072C2.27975 11.2574 2.27975 17.1157 6.00059 20.8366L17.8756 32.7116ZM8.24892 9.75322C9.49975 8.51822 11.0831 7.90072 12.6823 7.90072C14.2814 7.90072 15.8648 8.51822 17.0998 9.75322L17.8914 10.5449C18.5089 11.1624 19.5064 11.1624 20.1239 10.5449L20.9156 9.75322C23.3856 7.28322 27.2806 7.28322 29.7664 9.75322C32.2364 12.2391 32.2364 16.1182 29.7664 18.5882L19.0156 29.3391L8.26475 18.5882C7.67783 18.012 7.21162 17.3245 6.89337 16.566C6.57512 15.8075 6.41121 14.9933 6.41121 14.1707C6.41121 13.3482 6.57512 12.5339 6.89337 11.7754C7.21162 11.0169 7.67783 10.3295 8.26475 9.75322H8.24892Z" fill="#D38C9D"/>
</svg>
