<svg width="40" height="41" viewBox="0 0 40 41" fill="none" xmlns="http://www.w3.org/2000/svg">
<path d="M20 7.5C20.9946 7.5 21.9484 7.10491 22.6517 6.40165C23.3549 5.69839 23.75 4.74456 23.75 3.75C23.75 2.75544 23.3549 1.80161 22.6517 1.09835C21.9484 0.395088 20.9946 0 20 0C19.0054 0 18.0516 0.395088 17.3483 1.09835C16.6451 1.80161 16.25 2.75544 16.25 3.75C16.25 4.74456 16.6451 5.69839 17.3483 6.40165C18.0516 7.10491 19.0054 7.5 20 7.5Z" fill="#5B5B5B"/>
<path d="M14.8246 16.7599L12.7096 37.8874C12.6423 38.3923 12.7783 38.9033 13.0878 39.3079C13.3972 39.7125 13.8547 39.9776 14.3596 40.0449C14.8645 40.1122 15.3755 39.9762 15.7801 39.6668C16.1847 39.3573 16.4498 38.8998 16.5171 38.3949L18.5421 26.2324C18.5978 25.8863 18.775 25.5714 19.0418 25.3441C19.3087 25.1167 19.6478 24.9919 19.9984 24.9919C20.3489 24.9919 20.688 25.1167 20.9549 25.3441C21.2217 25.5714 21.3989 25.8863 21.4546 26.2324L23.4796 38.3949C23.5469 38.8998 23.812 39.3573 24.2166 39.6668C24.6212 39.9762 25.1322 40.1122 25.6371 40.0449C26.142 39.9776 26.5995 39.7125 26.9089 39.3079C27.2184 38.9033 27.3544 38.3923 27.2871 37.8874L25.1746 16.7599C25.121 16.21 25.1895 15.655 25.3754 15.1347C25.5612 14.6143 25.8597 14.1415 26.2496 13.7499L32.4996 5.70993C32.8081 5.29717 32.9444 4.78087 32.8799 4.26964C32.8154 3.75842 32.5552 3.29214 32.1539 2.96891C31.7526 2.64567 31.2416 2.4907 30.7283 2.53658C30.2151 2.58247 29.7397 2.82564 29.4021 3.21493L24.0846 9.59993C23.8735 9.8728 23.5865 10.0772 23.2596 10.1874C22.6846 10.3724 21.5971 10.6274 19.9996 10.6274C18.3996 10.6274 17.3146 10.3724 16.7371 10.1874C16.4111 10.0768 16.125 9.8724 15.9146 9.59993L10.5971 3.21493C10.2627 2.81481 9.78469 2.56191 9.26579 2.51063C8.74688 2.45935 8.22858 2.61379 7.82237 2.94072C7.41616 3.26765 7.1545 3.74096 7.09367 4.25883C7.03284 4.7767 7.17771 5.29776 7.4971 5.70993L13.7471 13.7499C14.5396 14.5399 14.9371 15.6449 14.8246 16.7599Z" fill="#5B5B5B"/>
</svg>
