<svg width="40" height="40" viewBox="0 0 40 40" fill="none" xmlns="http://www.w3.org/2000/svg">
<path d="M22.333 3.33325H9.99967C9.11562 3.33325 8.26777 3.68444 7.64265 4.30956C7.01753 4.93468 6.66634 5.78253 6.66634 6.66659V33.3333C6.66634 34.2173 7.01753 35.0652 7.64265 35.6903C8.26777 36.3154 9.11562 36.6666 9.99967 36.6666H29.9997C30.8837 36.6666 31.7316 36.3154 32.3567 35.6903C32.9818 35.0652 33.333 34.2173 33.333 33.3333V20.9999M3.33301 9.99992H9.99967M3.33301 16.6666H9.99967M3.33301 23.3333H9.99967M3.33301 29.9999H9.99967" stroke="#485F88" stroke-width="4" stroke-linecap="round" stroke-linejoin="round"/>
<path d="M35.6293 9.37659C36.2932 8.71266 36.6662 7.81219 36.6662 6.87326C36.6662 5.93432 36.2932 5.03385 35.6293 4.36992C34.9654 3.706 34.0649 3.33301 33.126 3.33301C32.187 3.33301 31.2866 3.706 30.6226 4.36992L22.2726 12.7233C21.8764 13.1193 21.5863 13.6088 21.4293 14.1466L20.0343 18.9299C19.9925 19.0733 19.99 19.2254 20.027 19.3701C20.0641 19.5148 20.1394 19.6469 20.2451 19.7525C20.3507 19.8581 20.4828 19.9334 20.6275 19.9705C20.7722 20.0076 20.9242 20.0051 21.0676 19.9633L25.851 18.5683C26.3888 18.4112 26.8783 18.1212 27.2743 17.7249L35.6293 9.37659Z" stroke="#485F88" stroke-width="4" stroke-linecap="round" stroke-linejoin="round"/>
</svg>
