<svg width="40" height="40" viewBox="0 0 40 40" fill="none" xmlns="http://www.w3.org/2000/svg">
<path fill-rule="evenodd" clip-rule="evenodd" d="M20 19.5833C20.3315 19.5833 20.6495 19.7149 20.8839 19.9494C21.1183 20.1838 21.25 20.5017 21.25 20.8333V22.0833H22.5C22.8315 22.0833 23.1495 22.2149 23.3839 22.4494C23.6183 22.6838 23.75 23.0017 23.75 23.3333C23.75 23.6648 23.6183 23.9827 23.3839 24.2171C23.1495 24.4516 22.8315 24.5833 22.5 24.5833H21.25V25.8333C21.25 26.1648 21.1183 26.4827 20.8839 26.7171C20.6495 26.9516 20.3315 27.0833 20 27.0833C19.6685 27.0833 19.3505 26.9516 19.1161 26.7171C18.8817 26.4827 18.75 26.1648 18.75 25.8333V24.5833H17.5C17.1685 24.5833 16.8505 24.4516 16.6161 24.2171C16.3817 23.9827 16.25 23.6648 16.25 23.3333C16.25 23.0017 16.3817 22.6838 16.6161 22.4494C16.8505 22.2149 17.1685 22.0833 17.5 22.0833H18.75V20.8333C18.75 20.5017 18.8817 20.1838 19.1161 19.9494C19.3505 19.7149 19.6685 19.5833 20 19.5833Z" fill="#485F88"/>
<path fill-rule="evenodd" clip-rule="evenodd" d="M19.913 2.08325C18.4147 2.08325 17.1663 2.08325 16.1763 2.21659C15.1297 2.35659 14.1847 2.66659 13.4263 3.42492C12.6663 4.18492 12.3563 5.12992 12.2163 6.17492C12.083 7.16659 12.083 8.41659 12.083 9.91325V10.0433C8.71467 10.1533 6.69134 10.5466 5.28634 11.9533C3.33301 13.9049 3.33301 17.0483 3.33301 23.3333C3.33301 29.6183 3.33301 32.7616 5.28634 34.7132C7.23967 36.6649 10.3813 36.6666 16.6663 36.6666H23.333C29.618 36.6666 32.7613 36.6666 34.713 34.7132C36.6647 32.7599 36.6663 29.6183 36.6663 23.3333C36.6663 17.0483 36.6663 13.9049 34.713 11.9533C33.308 10.5466 31.2847 10.1533 27.9163 10.0433V9.91325C27.9163 8.41659 27.9163 7.16659 27.783 6.17659C27.643 5.12992 27.333 4.18492 26.573 3.42659C25.8147 2.66659 24.8697 2.35659 23.823 2.21659C22.833 2.08325 21.583 2.08325 20.0863 2.08325H19.913ZM25.4163 10.0033V9.99992C25.4163 8.39325 25.413 7.31325 25.3063 6.50825C25.2013 5.73992 25.023 5.40992 24.8063 5.19325C24.5897 4.97659 24.2597 4.79825 23.4897 4.69325C22.6863 4.58659 21.6063 4.58325 19.9997 4.58325C18.393 4.58325 17.313 4.58659 16.508 4.69492C15.7397 4.79825 15.4097 4.97659 15.193 5.19492C14.9763 5.41325 14.798 5.73992 14.693 6.50825C14.588 7.31325 14.583 8.39325 14.583 9.99992V10.0033C15.2352 10.001 15.9297 9.99992 16.6663 9.99992H23.333C24.0686 9.99992 24.763 10.001 25.4163 10.0033ZM26.6663 23.3333C26.6663 25.1014 25.964 26.7971 24.7137 28.0473C23.4635 29.2975 21.7678 29.9999 19.9997 29.9999C18.2316 29.9999 16.5359 29.2975 15.2856 28.0473C14.0354 26.7971 13.333 25.1014 13.333 23.3333C13.333 21.5651 14.0354 19.8694 15.2856 18.6192C16.5359 17.369 18.2316 16.6666 19.9997 16.6666C21.7678 16.6666 23.4635 17.369 24.7137 18.6192C25.964 19.8694 26.6663 21.5651 26.6663 23.3333Z" fill="#485F88"/>
</svg>
