<svg width="24" height="24" viewBox="0 0 24 24" fill="none" xmlns="http://www.w3.org/2000/svg">
<path d="M0.0499003 1.65041L5.09257 19.1693C5.33153 20.2504 6.2809 21.1275 7.45761 21.2902L7.67719 21.3109C8.18085 21.3411 8.68347 21.2366 9.1334 21.0082C9.58333 20.7799 9.96434 20.4358 10.2373 20.0115L10.2954 19.9107L12.1037 17.2344L17.335 22.4656C17.5829 22.7137 17.8773 22.9105 18.2013 23.0448C18.5254 23.179 18.8727 23.2481 19.2234 23.2481C19.5741 23.2481 19.9214 23.179 20.2455 23.0448C20.5695 22.9105 20.8639 22.7137 21.1118 22.4656L22.4642 21.1132C22.9654 20.6121 23.2469 19.934 23.2469 19.2261L23.2366 18.991C23.181 18.3664 22.9076 17.7812 22.4642 17.3377L17.2368 12.109L19.9532 10.2852C20.8909 9.78791 21.4774 8.63445 21.3133 7.45774C21.2337 6.88391 20.9806 6.34813 20.5879 5.92219C20.1952 5.49626 19.6817 5.20052 19.1162 5.07462L1.64769 0.0500352C1.42573 -0.0136114 1.19076 -0.0165916 0.967246 0.041405C0.743737 0.0994017 0.539861 0.216255 0.376846 0.379797C0.213831 0.54334 0.0976377 0.747592 0.0403635 0.971287C-0.0169107 1.19498 -0.0131716 1.42994 0.0511919 1.6517L0.0499003 1.65041Z" fill="white"/>
</svg>
