<svg width="61" height="61" viewBox="0 0 61 61" fill="none" xmlns="http://www.w3.org/2000/svg">
<g filter="url(#filter0_di_1346_386)">
<circle cx="30.5" cy="26.5" r="26.5" fill="#9DACCC"/>
<circle cx="30.5" cy="26.5" r="25.5" stroke="#485F88" stroke-width="2"/>
</g>
<path d="M18.9249 16.5244L23.9676 34.0433C24.2065 35.1244 25.1559 36.0015 26.3326 36.1642L26.5522 36.1849C27.0559 36.2151 27.5585 36.1106 28.0084 35.8823C28.4583 35.6539 28.8393 35.3098 29.1123 34.8855L29.1704 34.7847L30.9787 32.1084L36.21 37.3396C36.4579 37.5877 36.7523 37.7845 37.0763 37.9188C37.4004 38.0531 37.7477 38.1222 38.0984 38.1222C38.4491 38.1222 38.7964 38.0531 39.1205 37.9188C39.4445 37.7845 39.7389 37.5877 39.9868 37.3396L41.3392 35.9873C41.8404 35.4861 42.1219 34.808 42.1219 34.1001L42.1116 33.8651C42.056 33.2404 41.7826 32.6552 41.3392 32.2117L36.1118 26.9831L38.8282 25.1592C39.7659 24.6619 40.3524 23.5085 40.1883 22.3318C40.1087 21.7579 39.8556 21.2221 39.4629 20.7962C39.0702 20.3703 38.5567 20.0745 37.9912 19.9486L20.5227 14.9241C20.3007 14.8604 20.0658 14.8574 19.8422 14.9154C19.6187 14.9734 19.4149 15.0903 19.2518 15.2538C19.0888 15.4174 18.9726 15.6216 18.9154 15.8453C18.8581 16.069 18.8618 16.304 18.9262 16.5257L18.9249 16.5244Z" fill="white"/>
<defs>
<filter id="filter0_di_1346_386" x="0" y="0" width="61" height="61" filterUnits="userSpaceOnUse" color-interpolation-filters="sRGB">
<feFlood flood-opacity="0" result="BackgroundImageFix"/>
<feColorMatrix in="SourceAlpha" type="matrix" values="0 0 0 0 0 0 0 0 0 0 0 0 0 0 0 0 0 0 127 0" result="hardAlpha"/>
<feOffset dy="4"/>
<feGaussianBlur stdDeviation="2"/>
<feComposite in2="hardAlpha" operator="out"/>
<feColorMatrix type="matrix" values="0 0 0 0 0 0 0 0 0 0 0 0 0 0 0 0 0 0 0.25 0"/>
<feBlend mode="normal" in2="BackgroundImageFix" result="effect1_dropShadow_1346_386"/>
<feBlend mode="normal" in="SourceGraphic" in2="effect1_dropShadow_1346_386" result="shape"/>
<feColorMatrix in="SourceAlpha" type="matrix" values="0 0 0 0 0 0 0 0 0 0 0 0 0 0 0 0 0 0 127 0" result="hardAlpha"/>
<feOffset dy="4"/>
<feGaussianBlur stdDeviation="2"/>
<feComposite in2="hardAlpha" operator="arithmetic" k2="-1" k3="1"/>
<feColorMatrix type="matrix" values="0 0 0 0 1 0 0 0 0 1 0 0 0 0 1 0 0 0 0.25 0"/>
<feBlend mode="normal" in2="shape" result="effect2_innerShadow_1346_386"/>
</filter>
</defs>
</svg>
