<svg width="44" height="44" viewBox="0 0 44 44" fill="none" xmlns="http://www.w3.org/2000/svg">
<path d="M30.7996 6.6001C32.55 6.6001 34.2288 7.29545 35.4665 8.53319C36.7043 9.77093 37.3996 11.4497 37.3996 13.2001V30.8001C37.3996 32.5505 36.7043 34.2293 35.4665 35.467C34.2288 36.7047 32.55 37.4001 30.7996 37.4001H13.1996C11.4492 37.4001 9.77044 36.7047 8.5327 35.467C7.29496 34.2293 6.59961 32.5505 6.59961 30.8001V13.2001C6.59961 11.4497 7.29496 9.77093 8.5327 8.53319C9.77044 7.29545 11.4492 6.6001 13.1996 6.6001H30.7996ZM12.0996 30.8001C11.8079 30.8001 11.5281 30.916 11.3218 31.1223C11.1155 31.3286 10.9996 31.6084 10.9996 31.9001C10.9996 32.1918 11.1155 32.4716 11.3218 32.6779C11.5281 32.8842 11.8079 33.0001 12.0996 33.0001H31.8996C32.1913 33.0001 32.4711 32.8842 32.6774 32.6779C32.8837 32.4716 32.9996 32.1918 32.9996 31.9001C32.9996 31.6084 32.8837 31.3286 32.6774 31.1223C32.4711 30.916 32.1913 30.8001 31.8996 30.8001H12.0996ZM12.0996 26.4001C11.8079 26.4001 11.5281 26.516 11.3218 26.7223C11.1155 26.9286 10.9996 27.2084 10.9996 27.5001C10.9996 27.7918 11.1155 28.0716 11.3218 28.2779C11.5281 28.4842 11.8079 28.6001 12.0996 28.6001H31.8996C32.1913 28.6001 32.4711 28.4842 32.6774 28.2779C32.8837 28.0716 32.9996 27.7918 32.9996 27.5001C32.9996 27.2084 32.8837 26.9286 32.6774 26.7223C32.4711 26.516 32.1913 26.4001 31.8996 26.4001H12.0996ZM17.5996 11.0001C17.3868 11.0001 17.1785 11.0618 17.0001 11.1778C16.8216 11.2937 16.6806 11.459 16.5942 11.6535L12.1942 21.5535C12.1356 21.6855 12.1035 21.8278 12.0998 21.9722C12.0962 22.1167 12.121 22.2604 12.1729 22.3952C12.2248 22.5301 12.3027 22.6533 12.4023 22.7581C12.5018 22.8628 12.621 22.9468 12.753 23.0055C12.885 23.0641 13.0273 23.0962 13.1718 23.0999C13.3162 23.1035 13.4599 23.0787 13.5947 23.0268C13.7296 22.9749 13.8529 22.897 13.9576 22.7974C14.0623 22.6979 14.1464 22.5787 14.205 22.4467L15.3798 19.8001H19.8216L20.9964 22.4467C21.1149 22.7133 21.3344 22.922 21.6067 23.0268C21.879 23.1316 22.1818 23.1239 22.4484 23.0055C22.7151 22.8871 22.9237 22.6675 23.0285 22.3952C23.1333 22.1229 23.1257 21.8201 23.0072 21.5535L18.6072 11.6535C18.5206 11.4587 18.3793 11.2932 18.2004 11.1772C18.0216 11.0612 17.8128 10.9996 17.5996 11.0001ZM28.5996 11.0001C28.3079 11.0001 28.0281 11.116 27.8218 11.3223C27.6155 11.5286 27.4996 11.8084 27.4996 12.1001V14.3001H25.2996C25.0079 14.3001 24.7281 14.416 24.5218 14.6223C24.3155 14.8286 24.1996 15.1084 24.1996 15.4001C24.1996 15.6918 24.3155 15.9716 24.5218 16.1779C24.7281 16.3842 25.0079 16.5001 25.2996 16.5001H27.4996V18.7001C27.4996 18.9918 27.6155 19.2716 27.8218 19.4779C28.0281 19.6842 28.3079 19.8001 28.5996 19.8001C28.8913 19.8001 29.1711 19.6842 29.3774 19.4779C29.5837 19.2716 29.6996 18.9918 29.6996 18.7001V16.5001H31.8996C32.1913 16.5001 32.4711 16.3842 32.6774 16.1779C32.8837 15.9716 32.9996 15.6918 32.9996 15.4001C32.9996 15.1084 32.8837 14.8286 32.6774 14.6223C32.4711 14.416 32.1913 14.3001 31.8996 14.3001H29.6996V12.1001C29.6996 11.8084 29.5837 11.5286 29.3774 11.3223C29.1711 11.116 28.8913 11.0001 28.5996 11.0001ZM18.8382 17.6001H16.361L17.5996 14.8083L18.8382 17.6001Z" fill="#A15958"/>
</svg>
