<svg width="40" height="40" viewBox="0 0 40 40" fill="none" xmlns="http://www.w3.org/2000/svg">
<path fill-rule="evenodd" clip-rule="evenodd" d="M13.3337 4.99992C13.3337 4.55789 13.5093 4.13397 13.8218 3.82141C14.1344 3.50885 14.5583 3.33325 15.0003 3.33325H25.0003C25.4424 3.33325 25.8663 3.50885 26.1788 3.82141C26.4914 4.13397 26.667 4.55789 26.667 4.99992H30.0003C30.8844 4.99992 31.7322 5.35111 32.3573 5.97623C32.9825 6.60135 33.3337 7.4492 33.3337 8.33325V33.3333C33.3337 34.2173 32.9825 35.0652 32.3573 35.6903C31.7322 36.3154 30.8844 36.6666 30.0003 36.6666H10.0003C9.11627 36.6666 8.26842 36.3154 7.6433 35.6903C7.01818 35.0652 6.66699 34.2173 6.66699 33.3333V8.33325C6.66699 7.4492 7.01818 6.60135 7.6433 5.97623C8.26842 5.35111 9.11627 4.99992 10.0003 4.99992H13.3337ZM23.3337 6.66659H16.667V9.99992H15.0003C14.5583 9.99992 14.1344 10.1755 13.8218 10.4881C13.5093 10.8006 13.3337 11.2246 13.3337 11.6666C13.3337 12.1086 13.5093 12.5325 13.8218 12.8451C14.1344 13.1577 14.5583 13.3333 15.0003 13.3333H25.0003C25.4424 13.3333 25.8663 13.1577 26.1788 12.8451C26.4914 12.5325 26.667 12.1086 26.667 11.6666C26.667 11.2246 26.4914 10.8006 26.1788 10.4881C25.8663 10.1755 25.4424 9.99992 25.0003 9.99992H23.3337V6.66659ZM13.3337 19.9999C13.3337 19.5579 13.5093 19.134 13.8218 18.8214C14.1344 18.5088 14.5583 18.3333 15.0003 18.3333H25.0003C25.4424 18.3333 25.8663 18.5088 26.1788 18.8214C26.4914 19.134 26.667 19.5579 26.667 19.9999C26.667 20.4419 26.4914 20.8659 26.1788 21.1784C25.8663 21.491 25.4424 21.6666 25.0003 21.6666H15.0003C14.5583 21.6666 14.1344 21.491 13.8218 21.1784C13.5093 20.8659 13.3337 20.4419 13.3337 19.9999ZM15.0003 24.9999C14.5583 24.9999 14.1344 25.1755 13.8218 25.4881C13.5093 25.8006 13.3337 26.2246 13.3337 26.6666C13.3337 27.1086 13.5093 27.5325 13.8218 27.8451C14.1344 28.1577 14.5583 28.3333 15.0003 28.3333H25.0003C25.4424 28.3333 25.8663 28.1577 26.1788 27.8451C26.4914 27.5325 26.667 27.1086 26.667 26.6666C26.667 26.2246 26.4914 25.8006 26.1788 25.4881C25.8663 25.1755 25.4424 24.9999 25.0003 24.9999H15.0003Z" fill="#485F88"/>
</svg>
