<svg width="709" height="442" viewBox="0 0 709 442" fill="none" xmlns="http://www.w3.org/2000/svg">
<path d="M0 125.118H689C700.046 125.118 709 134.072 709 145.118V296.27C709 307.315 700.046 316.27 689 316.27H0V125.118Z" fill="white"/>
<path d="M0.167741 0C0.0622545 1.80333 0 3.6174 0 5.44063V0H0.167741Z" fill="white"/>
<path d="M0 125.118V5.44063C0.000517441 70.6278 68.1443 123.635 152.922 125.08V125.118H0Z" fill="white"/>
<path d="M0.167741 441.387C0.0622545 439.584 0 437.77 0 435.947V441.387H0.167741Z" fill="white"/>
<path d="M0 316.27V435.947C0.000517441 370.759 68.1443 317.752 152.922 316.307V316.27H0Z" fill="white"/>
</svg>
