<svg width="204" height="127" viewBox="0 0 204 127" fill="none" xmlns="http://www.w3.org/2000/svg">
<path d="M0 36H184C195.046 36 204 44.9543 204 56V71C204 82.0457 195.046 91 184 91H0V36Z" fill="white"/>
<path d="M0.0482641 0C0.0179124 0.518871 0 1.04083 0 1.56543V0H0.0482641Z" fill="white"/>
<path d="M0 36V1.56543C0.000148883 20.3217 19.6071 35.5734 44 35.9893V36H0Z" fill="white"/>
<path d="M0.0482641 127C0.0179124 126.481 0 125.959 0 125.435V127H0.0482641Z" fill="white"/>
<path d="M0 91V125.435C0.000148883 106.678 19.6071 91.4266 44 91.0107V91H0Z" fill="white"/>
</svg>
