<svg width="40" height="40" viewBox="0 0 40 40" fill="none" xmlns="http://www.w3.org/2000/svg">
<path d="M21.6663 20H13.333C12.8747 20 12.4997 19.625 12.4997 19.1667C12.4997 18.7083 12.8747 18.3333 13.333 18.3333H21.6663C22.1247 18.3333 22.4997 18.7083 22.4997 19.1667C22.4997 19.625 22.1247 20 21.6663 20ZM32.3013 26.5933L28.5597 22.7883C28.9546 21.6214 29.1594 20.3986 29.1663 19.1667C29.1663 12.735 23.9313 7.5 17.4997 7.5C11.068 7.5 5.83301 12.735 5.83301 19.1667C5.83301 25.5983 11.068 30.8333 17.4997 30.8333C18.768 30.8333 19.9797 30.605 21.1213 30.2267L25.1163 34.2033C26.0953 35.0373 27.337 35.4993 28.623 35.5083C30.0066 35.507 31.3331 34.9568 32.3115 33.9785C33.2898 33.0001 33.84 31.6736 33.8413 30.29C33.8413 28.89 33.2947 27.5767 32.3013 26.5933ZM25.7997 24.7433L29.953 28.9617C30.2947 29.3 30.5063 29.7717 30.5063 30.29C30.5063 31.3317 29.6613 32.175 28.6213 32.175C28.1013 32.175 27.6313 31.9633 27.2613 31.6533L23.0747 27.4683C24.1484 26.742 25.0734 25.8171 25.7997 24.7433ZM9.16634 19.1667C9.16634 14.5717 12.9047 10.8333 17.4997 10.8333C22.0947 10.8333 25.833 14.5717 25.833 19.1667C25.833 23.7617 22.0947 27.5 17.4997 27.5C12.9047 27.5 9.16634 23.7617 9.16634 19.1667Z" fill="white"/>
</svg>
