<svg width="61" height="61" viewBox="0 0 61 61" fill="none" xmlns="http://www.w3.org/2000/svg">
<g filter="url(#filter0_di_1346_389)">
<circle cx="30.5" cy="26.5" r="26.5" fill="#485F88"/>
</g>
<path d="M32.6663 24.3333H29.333V21C29.333 20.5417 28.958 20.1667 28.4997 20.1667C28.0413 20.1667 27.6663 20.5417 27.6663 21V24.3333H24.333C23.8747 24.3333 23.4997 24.7083 23.4997 25.1667C23.4997 25.625 23.8747 26 24.333 26H27.6663V29.3333C27.6663 29.7917 28.0413 30.1667 28.4997 30.1667C28.958 30.1667 29.333 29.7917 29.333 29.3333V26H32.6663C33.1247 26 33.4997 25.625 33.4997 25.1667C33.4997 24.7083 33.1247 24.3333 32.6663 24.3333ZM43.3013 32.5933L39.5613 28.7883C39.9557 27.6213 40.1599 26.3985 40.1663 25.1667C40.1663 18.735 34.9313 13.5 28.4997 13.5C22.068 13.5 16.833 18.735 16.833 25.1667C16.833 31.5983 22.068 36.8333 28.4997 36.8333C29.7697 36.8333 30.9797 36.605 32.1213 36.2267L36.1163 40.2033C37.0953 41.0373 38.337 41.4993 39.623 41.5083C41.0066 41.507 42.3331 40.9568 43.3115 39.9785C44.2898 39.0001 44.84 37.6736 44.8413 36.29C44.8413 34.89 44.2947 33.5767 43.3013 32.5933ZM36.7997 30.7433L40.953 34.9617C41.2947 35.3 41.5063 35.7717 41.5063 36.29C41.5063 37.3317 40.6613 38.175 39.6213 38.175C39.1013 38.175 38.6313 37.9633 38.2613 37.6533L34.0747 33.4683C35.1484 32.742 36.0734 31.8171 36.7997 30.7433ZM20.1663 25.1667C20.1663 20.5717 23.9047 16.8333 28.4997 16.8333C33.0947 16.8333 36.833 20.5717 36.833 25.1667C36.833 29.7617 33.0947 33.5 28.4997 33.5C23.9047 33.5 20.1663 29.7617 20.1663 25.1667Z" fill="white"/>
<defs>
<filter id="filter0_di_1346_389" x="0" y="0" width="61" height="61" filterUnits="userSpaceOnUse" color-interpolation-filters="sRGB">
<feFlood flood-opacity="0" result="BackgroundImageFix"/>
<feColorMatrix in="SourceAlpha" type="matrix" values="0 0 0 0 0 0 0 0 0 0 0 0 0 0 0 0 0 0 127 0" result="hardAlpha"/>
<feOffset dy="4"/>
<feGaussianBlur stdDeviation="2"/>
<feComposite in2="hardAlpha" operator="out"/>
<feColorMatrix type="matrix" values="0 0 0 0 0 0 0 0 0 0 0 0 0 0 0 0 0 0 0.25 0"/>
<feBlend mode="normal" in2="BackgroundImageFix" result="effect1_dropShadow_1346_389"/>
<feBlend mode="normal" in="SourceGraphic" in2="effect1_dropShadow_1346_389" result="shape"/>
<feColorMatrix in="SourceAlpha" type="matrix" values="0 0 0 0 0 0 0 0 0 0 0 0 0 0 0 0 0 0 127 0" result="hardAlpha"/>
<feOffset dy="4"/>
<feGaussianBlur stdDeviation="2"/>
<feComposite in2="hardAlpha" operator="arithmetic" k2="-1" k3="1"/>
<feColorMatrix type="matrix" values="0 0 0 0 1 0 0 0 0 1 0 0 0 0 1 0 0 0 0.25 0"/>
<feBlend mode="normal" in2="shape" result="effect2_innerShadow_1346_389"/>
</filter>
</defs>
</svg>
