<svg width="61" height="61" viewBox="0 0 61 61" fill="none" xmlns="http://www.w3.org/2000/svg">
<g filter="url(#filter0_di_1346_392)">
<circle cx="30.5" cy="26.5" r="26.5" fill="#485F88"/>
</g>
<path d="M31.6663 26H23.333C22.8747 26 22.4997 25.625 22.4997 25.1667C22.4997 24.7083 22.8747 24.3333 23.333 24.3333H31.6663C32.1247 24.3333 32.4997 24.7083 32.4997 25.1667C32.4997 25.625 32.1247 26 31.6663 26ZM42.3013 32.5933L38.5597 28.7883C38.9546 27.6214 39.1594 26.3986 39.1663 25.1667C39.1663 18.735 33.9313 13.5 27.4997 13.5C21.068 13.5 15.833 18.735 15.833 25.1667C15.833 31.5983 21.068 36.8333 27.4997 36.8333C28.768 36.8333 29.9797 36.605 31.1213 36.2267L35.1163 40.2033C36.0953 41.0373 37.337 41.4993 38.623 41.5083C40.0066 41.507 41.3331 40.9568 42.3115 39.9785C43.2898 39.0001 43.84 37.6736 43.8413 36.29C43.8413 34.89 43.2947 33.5767 42.3013 32.5933ZM35.7997 30.7433L39.953 34.9617C40.2947 35.3 40.5063 35.7717 40.5063 36.29C40.5063 37.3317 39.6613 38.175 38.6213 38.175C38.1013 38.175 37.6313 37.9633 37.2613 37.6533L33.0747 33.4683C34.1484 32.742 35.0734 31.8171 35.7997 30.7433ZM19.1663 25.1667C19.1663 20.5717 22.9047 16.8333 27.4997 16.8333C32.0947 16.8333 35.833 20.5717 35.833 25.1667C35.833 29.7617 32.0947 33.5 27.4997 33.5C22.9047 33.5 19.1663 29.7617 19.1663 25.1667Z" fill="white"/>
<defs>
<filter id="filter0_di_1346_392" x="0" y="0" width="61" height="61" filterUnits="userSpaceOnUse" color-interpolation-filters="sRGB">
<feFlood flood-opacity="0" result="BackgroundImageFix"/>
<feColorMatrix in="SourceAlpha" type="matrix" values="0 0 0 0 0 0 0 0 0 0 0 0 0 0 0 0 0 0 127 0" result="hardAlpha"/>
<feOffset dy="4"/>
<feGaussianBlur stdDeviation="2"/>
<feComposite in2="hardAlpha" operator="out"/>
<feColorMatrix type="matrix" values="0 0 0 0 0 0 0 0 0 0 0 0 0 0 0 0 0 0 0.25 0"/>
<feBlend mode="normal" in2="BackgroundImageFix" result="effect1_dropShadow_1346_392"/>
<feBlend mode="normal" in="SourceGraphic" in2="effect1_dropShadow_1346_392" result="shape"/>
<feColorMatrix in="SourceAlpha" type="matrix" values="0 0 0 0 0 0 0 0 0 0 0 0 0 0 0 0 0 0 127 0" result="hardAlpha"/>
<feOffset dy="4"/>
<feGaussianBlur stdDeviation="2"/>
<feComposite in2="hardAlpha" operator="arithmetic" k2="-1" k3="1"/>
<feColorMatrix type="matrix" values="0 0 0 0 1 0 0 0 0 1 0 0 0 0 1 0 0 0 0.25 0"/>
<feBlend mode="normal" in2="shape" result="effect2_innerShadow_1346_392"/>
</filter>
</defs>
</svg>
